<svg width="191" height="47" viewBox="0 0 191 47" fill="none" xmlns="http://www.w3.org/2000/svg">
<g filter="url(#filter0_d_323_216)">
<path d="M48.6726 23.8554V31.5024C48.6726 32.1821 48.4025 32.8341 47.9218 33.3147C47.4412 33.7953 46.7892 34.0655 46.1095 34.0655V34.0655C45.265 34.0655 44.5816 34.732 44.4189 35.5607C43.474 40.3712 39.2342 44 34.1468 44H16.5258C11.4383 44 7.19861 40.3712 6.25372 35.5607C6.09095 34.732 5.40761 34.0655 4.56308 34.0655V34.0655C3.88331 34.0655 3.23138 33.7953 2.75071 33.3147C2.27004 32.8341 2 32.1821 2 31.5024V23.8554C2 23.1756 2.27004 22.5237 2.75071 22.043C3.23138 21.5624 3.88331 21.2923 4.56308 21.2923V21.2923C5.40761 21.2923 6.09095 20.6257 6.25372 19.7971C7.19861 14.9866 11.4383 11.3578 16.5258 11.3578H22.283C23.2603 11.3578 24.0525 10.5655 24.0525 9.58821V8.71809C24.0525 8.22133 23.6498 7.81863 23.1531 7.81863V7.81863C22.4375 7.81863 22.0084 7.02356 22.4013 6.42543L24.1831 3.71215C24.907 2.60998 26.621 3.12249 26.621 4.44108V4.86987C26.621 5.36644 27.0235 5.76899 27.5201 5.76899V5.76899C28.2354 5.76899 28.6643 6.56377 28.2716 7.16167L27.3511 8.56339C26.5632 9.76306 27.4237 11.3578 28.859 11.3578H34.1458C39.2333 11.3578 43.473 14.9866 44.4179 19.7971C44.5807 20.6257 45.264 21.2923 46.1086 21.2923V21.2923C46.4453 21.2922 46.7785 21.3584 47.0897 21.4872C47.4008 21.6159 47.6836 21.8047 47.9215 22.0427C48.1598 22.2807 48.3485 22.5633 48.4772 22.8743C48.6063 23.1854 48.6726 23.5187 48.6726 23.8554Z" fill="url(#paint0_linear_323_216)"/>
</g>
<g style="mix-blend-mode:screen" opacity="0.1">
<path d="M43.071 23.3434V24.7366C29.6363 18.6287 17.2529 19.0017 7.83435 21.158C8.83787 16.4803 12.9962 12.9736 17.9737 12.9736H32.7009C38.4267 12.9733 43.071 17.616 43.071 23.3434Z" fill="white"/>
</g>
<path d="M34.7007 17.2393H15.9715C12.8893 17.2393 10.3906 19.7379 10.3906 22.8202V32.537C10.3906 35.6192 12.8893 38.1179 15.9715 38.1179H34.7007C37.7829 38.1179 40.2816 35.6192 40.2816 32.537V22.8202C40.2816 19.7379 37.7829 17.2393 34.7007 17.2393Z" fill="white"/>
<path d="M16.8282 22.7886H16.2883C15.2349 22.7886 14.381 23.6425 14.381 24.6959V28.3089C14.381 29.3623 15.2349 30.2162 16.2883 30.2162H16.8282C17.8816 30.2162 18.7356 29.3623 18.7356 28.3089V24.6959C18.7356 23.6425 17.8816 22.7886 16.8282 22.7886Z" fill="#121826"/>
<path d="M33.8439 30.2162H34.3839C35.4373 30.2162 36.2912 29.3623 36.2912 28.3089V24.6959C36.2912 23.6425 35.4373 22.7886 34.3839 22.7886H33.8439C32.7906 22.7886 31.9366 23.6425 31.9366 24.6959V28.3089C31.9366 29.3623 32.7906 30.2162 33.8439 30.2162Z" fill="#121826"/>
<path d="M25.6379 34.5703C25.5839 34.5703 25.529 34.5703 25.4741 34.5677C25.4192 34.5652 25.3643 34.5703 25.3103 34.5703C24.1716 34.5703 23.059 34.2288 22.1165 33.5895C21.1741 32.9501 20.4452 32.0428 20.0242 30.9847L21.9545 30.2163C22.2197 30.8895 22.682 31.4669 23.2807 31.8731C23.8795 32.2792 24.5868 32.4951 25.3103 32.4925C25.3523 32.4925 25.3955 32.4925 25.4388 32.4903H25.4741H25.5095C25.5527 32.4903 25.5956 32.4925 25.6379 32.4925C26.3613 32.4951 27.0687 32.2792 27.6674 31.8731C28.2661 31.4669 28.7283 30.8895 28.9934 30.2163L30.9241 30.9847C30.5029 32.0428 29.774 32.9501 28.8316 33.5892C27.8892 34.2285 26.7766 34.5703 25.6379 34.5703Z" fill="#121826"/>
<path d="M66.7386 31.94L69.2286 23.3L67.4286 17.57H65.7186V17H75.0186V17.57H73.2486L77.7186 31.76L81.3186 17.57H78.2886V17H84.2886V17.57H82.3086L76.7886 38.3H74.1186L69.6786 24.74L65.7786 38.3H63.1686L55.6086 17.57H54.1986V17H63.9486V17.57H61.8486L66.7386 31.94ZM92.9909 24.56C92.2509 24.56 91.6009 25.04 91.0409 26C90.4809 26.96 90.2009 28.1 90.2009 29.42V37.46H92.3309V38H82.9709V37.46H84.6209V24.26H82.9709V23.72H90.2009V26.6C90.4609 25.58 90.9609 24.8 91.7009 24.26C92.4409 23.7 93.2809 23.42 94.2209 23.42C95.1609 23.42 95.9209 23.69 96.5009 24.23C97.1009 24.75 97.4009 25.5 97.4009 26.48C97.4009 27.44 97.1809 28.18 96.7409 28.7C96.3009 29.22 95.6209 29.48 94.7009 29.48C93.8009 29.48 93.1309 29.18 92.6909 28.58C92.2709 27.98 92.2209 27.15 92.5409 26.09H93.6209C94.1209 25.07 93.9109 24.56 92.9909 24.56ZM102.234 21.65C101.174 21.65 100.414 21.38 99.9544 20.84C99.5144 20.3 99.2944 19.63 99.2944 18.83C99.2944 18.03 99.5344 17.37 100.014 16.85C100.514 16.33 101.264 16.07 102.264 16.07C103.264 16.07 104.024 16.31 104.544 16.79C105.064 17.25 105.324 17.92 105.324 18.8C105.324 19.66 105.074 20.35 104.574 20.87C104.074 21.39 103.294 21.65 102.234 21.65ZM97.7044 23.72H105.054V37.46H106.734V38H97.8244V37.46H99.4744V24.26H97.7044V23.72ZM108.846 33.71V24.26H107.196V23.72H108.846V19.85L114.426 18.47V23.72H118.326V24.26H114.426V34.37C114.426 35.31 114.516 36 114.696 36.44C114.896 36.88 115.296 37.1 115.896 37.1C116.496 37.1 117.016 36.8 117.456 36.2C117.916 35.6 118.216 34.78 118.356 33.74L118.866 33.8C118.706 35.18 118.266 36.28 117.546 37.1C116.826 37.9 115.636 38.3 113.976 38.3C112.316 38.3 111.046 37.97 110.166 37.31C109.286 36.65 108.846 35.45 108.846 33.71ZM127.043 38.3C124.463 38.3 122.523 37.64 121.223 36.32C119.943 34.98 119.303 33.13 119.303 30.77C119.303 28.39 120.023 26.57 121.463 25.31C122.923 24.05 124.773 23.42 127.013 23.42C131.553 23.42 133.733 25.7 133.553 30.26H125.093V31.43C125.093 33.39 125.343 34.87 125.843 35.87C126.343 36.87 127.213 37.37 128.453 37.37C130.773 37.37 132.293 36.13 133.013 33.65L133.553 33.74C133.173 35.18 132.483 36.3 131.483 37.1C130.503 37.9 129.023 38.3 127.043 38.3ZM125.123 29.66H128.213V28.19C128.213 26.57 128.113 25.47 127.913 24.89C127.733 24.29 127.353 23.99 126.773 23.99C126.213 23.99 125.793 24.31 125.513 24.95C125.253 25.57 125.123 26.65 125.123 28.19V29.66ZM146.651 22.16L147.491 21.65C147.611 21.03 147.371 20.72 146.771 20.72C145.911 20.72 145.481 21.38 145.481 22.7C145.481 23.22 145.551 23.82 145.691 24.5C147.211 25.52 147.971 26.83 147.971 28.43C147.971 30.01 147.421 31.24 146.321 32.12C145.221 33 143.731 33.44 141.851 33.44C141.071 33.44 140.261 33.36 139.421 33.2C138.541 33.76 138.101 34.18 138.101 34.46C138.101 34.74 138.741 34.88 140.021 34.88H143.081C147.621 34.88 149.891 36.51 149.891 39.77C149.891 41.53 149.201 42.92 147.821 43.94C146.461 44.98 144.331 45.5 141.431 45.5C136.491 45.5 134.021 44.43 134.021 42.29C134.021 41.13 134.791 40.33 136.331 39.89L138.131 40.7C137.971 41.28 137.891 41.83 137.891 42.35C137.891 44.07 139.171 44.93 141.731 44.93C143.291 44.93 144.491 44.64 145.331 44.06C146.171 43.48 146.591 42.76 146.591 41.9C146.591 41.04 146.331 40.46 145.811 40.16C145.311 39.88 144.301 39.74 142.781 39.74H139.871C138.251 39.74 137.091 39.47 136.391 38.93C135.691 38.39 135.341 37.73 135.341 36.95C135.341 36.15 135.591 35.49 136.091 34.97C136.591 34.43 137.481 33.77 138.761 32.99C136.441 32.33 135.281 30.81 135.281 28.43C135.281 26.93 135.821 25.72 136.901 24.8C137.981 23.88 139.601 23.42 141.761 23.42C143.061 23.42 144.171 23.67 145.091 24.17C144.971 23.63 144.911 23.14 144.911 22.7C144.911 21.58 145.211 20.77 145.811 20.27C146.411 19.77 147.081 19.52 147.821 19.52C148.561 19.52 149.151 19.72 149.591 20.12C150.051 20.5 150.281 21.03 150.281 21.71C150.281 22.39 150.101 22.9 149.741 23.24C149.381 23.56 148.941 23.72 148.421 23.72C147.921 23.72 147.501 23.59 147.161 23.33C146.841 23.05 146.671 22.66 146.651 22.16ZM140.291 27.77V29.39C140.291 30.73 140.401 31.64 140.621 32.12C140.861 32.6 141.211 32.84 141.671 32.84C142.151 32.84 142.491 32.61 142.691 32.15C142.911 31.67 143.021 30.7 143.021 29.24V27.77C143.021 26.21 142.921 25.19 142.721 24.71C142.521 24.21 142.181 23.96 141.701 23.96C141.241 23.96 140.891 24.22 140.651 24.74C140.411 25.24 140.291 26.25 140.291 27.77ZM157.277 38.3C154.697 38.3 152.757 37.64 151.457 36.32C150.177 34.98 149.537 33.13 149.537 30.77C149.537 28.39 150.257 26.57 151.697 25.31C153.157 24.05 155.007 23.42 157.247 23.42C161.787 23.42 163.967 25.7 163.787 30.26H155.327V31.43C155.327 33.39 155.577 34.87 156.077 35.87C156.577 36.87 157.447 37.37 158.687 37.37C161.007 37.37 162.527 36.13 163.247 33.65L163.787 33.74C163.407 35.18 162.717 36.3 161.717 37.1C160.737 37.9 159.257 38.3 157.277 38.3ZM155.357 29.66H158.447V28.19C158.447 26.57 158.347 25.47 158.147 24.89C157.967 24.29 157.587 23.99 157.007 23.99C156.447 23.99 156.027 24.31 155.747 24.95C155.487 25.57 155.357 26.65 155.357 28.19V29.66ZM164.916 23.72H172.146V26.48C172.466 25.56 172.956 24.82 173.616 24.26C174.276 23.7 175.276 23.42 176.616 23.42C179.716 23.42 181.266 25.09 181.266 28.43V37.46H182.946V38H174.456V37.46H175.686V27.71C175.686 26.51 175.606 25.74 175.446 25.4C175.286 25.04 174.996 24.86 174.576 24.86C173.936 24.86 173.366 25.28 172.866 26.12C172.386 26.96 172.146 27.98 172.146 29.18V37.46H173.436V38H164.916V37.46H166.566V24.26H164.916V23.72Z" fill="#080D35"/>
<path d="M186.972 38.3C186.112 38.3 185.462 38.05 185.022 37.55C184.602 37.03 184.392 36.41 184.392 35.69C184.392 34.95 184.612 34.33 185.052 33.83C185.512 33.33 186.152 33.08 186.972 33.08C187.792 33.08 188.442 33.29 188.922 33.71C189.402 34.13 189.642 34.76 189.642 35.6C189.642 36.44 189.412 37.1 188.952 37.58C188.512 38.06 187.852 38.3 186.972 38.3Z" fill="#DF3D84"/>
<defs>
<filter id="filter0_d_323_216" x="0" y="2.11084" width="50.6726" height="44.8892" filterUnits="userSpaceOnUse" color-interpolation-filters="sRGB">
<feFlood flood-opacity="0" result="BackgroundImageFix"/>
<feColorMatrix in="SourceAlpha" type="matrix" values="0 0 0 0 0 0 0 0 0 0 0 0 0 0 0 0 0 0 127 0" result="hardAlpha"/>
<feOffset dy="1"/>
<feGaussianBlur stdDeviation="1"/>
<feComposite in2="hardAlpha" operator="out"/>
<feColorMatrix type="matrix" values="0 0 0 0 0.380709 0 0 0 0 0.0332292 0 0 0 0 0.725 0 0 0 0.4 0"/>
<feBlend mode="normal" in2="BackgroundImageFix" result="effect1_dropShadow_323_216"/>
<feBlend mode="normal" in="SourceGraphic" in2="effect1_dropShadow_323_216" result="shape"/>
</filter>
<linearGradient id="paint0_linear_323_216" x1="8.45472" y1="70.7826" x2="78.9467" y2="44.8636" gradientUnits="userSpaceOnUse">
<stop stop-color="#5B21B6"/>
<stop offset="0.319554" stop-color="#7E22CE"/>
<stop offset="0.641096" stop-color="#DB2777"/>
<stop offset="1" stop-color="#FACC15"/>
</linearGradient>
</defs>
</svg>
