<svg width="18" height="18" viewBox="0 0 18 18" fill="none" xmlns="http://www.w3.org/2000/svg">
<path d="M14.8221 13.3465L15.1731 16.1903C15.2631 16.9373 14.4622 17.4593 13.8232 17.0723L10.7093 15.2184C10.4933 15.0924 10.4393 14.8224 10.5563 14.6064C11.0063 13.7784 11.2493 12.8425 11.2493 11.9065C11.2493 8.61265 8.42341 5.93076 4.94955 5.93076C4.23858 5.93076 3.54561 6.03875 2.89764 6.25474C2.56465 6.36274 2.24066 6.05675 2.32166 5.71477C3.14063 2.4389 6.2905 0 10.0523 0C14.4442 0 17.999 3.32086 17.999 7.4157C17.999 9.8456 16.7481 11.9965 14.8221 13.3465Z" fill="#38B762"/>
<path d="M9.89959 11.9065C9.89959 12.9775 9.50361 13.9674 8.83764 14.7504C7.94667 15.8303 6.53373 16.5233 4.9498 16.5233L2.60089 17.9183C2.20491 18.1613 1.70093 17.8283 1.75493 17.3693L1.97992 15.5964C0.773968 14.7594 0 13.4184 0 11.9065C0 10.3226 0.845965 8.92763 2.14191 8.09967C2.94288 7.57769 3.90584 7.2807 4.9498 7.2807C7.68568 7.2807 9.89959 9.35062 9.89959 11.9065Z" fill="#38B762"/>
</svg>
