<svg width="48" height="48" viewBox="0 0 48 48" fill="none" xmlns="http://www.w3.org/2000/svg">
<rect width="48" height="48" rx="24" fill="url(#paint0_radial_265_911)"/>
<path opacity="0.4" d="M31.1579 22.8796H28.7242C26.7284 22.8796 25.1032 21.2584 25.1032 19.2676V16.84C25.1032 16.378 24.7242 16 24.2611 16H20.6905C18.0968 16 16 17.68 16 20.6788V28.1212C16 31.12 18.0968 32.8 20.6905 32.8H27.3095C29.9032 32.8 32 31.12 32 28.1212V23.7196C32 23.2576 31.6211 22.8796 31.1579 22.8796Z" fill="url(#paint1_linear_265_911)"/>
<path d="M27.201 16.1764C26.8557 15.832 26.2578 16.0672 26.2578 16.546V19.4776C26.2578 20.704 27.302 21.7204 28.5736 21.7204C29.3736 21.7288 30.4852 21.7288 31.4368 21.7288C31.9168 21.7288 32.1694 21.166 31.8325 20.83C30.6199 19.612 28.4473 17.4196 27.201 16.1764Z" fill="url(#paint2_linear_265_911)"/>
<path d="M25.2623 25.87H20.2097C19.8644 25.87 19.5781 25.5844 19.5781 25.24C19.5781 24.8956 19.8644 24.61 20.2097 24.61H25.2623C25.6076 24.61 25.8939 24.8956 25.8939 25.24C25.8939 25.5844 25.6076 25.87 25.2623 25.87Z" fill="url(#paint3_linear_265_911)"/>
<path d="M23.5781 29.2299H20.2097C19.8644 29.2299 19.5781 28.9443 19.5781 28.5999C19.5781 28.2555 19.8644 27.9699 20.2097 27.9699H23.5781C23.9234 27.9699 24.2097 28.2555 24.2097 28.5999C24.2097 28.9443 23.9234 29.2299 23.5781 29.2299Z" fill="url(#paint4_linear_265_911)"/>
<defs>
<radialGradient id="paint0_radial_265_911" cx="0" cy="0" r="1" gradientUnits="userSpaceOnUse" gradientTransform="translate(19.4483 24) rotate(79.2611) scale(24.4278)">
<stop stop-color="#ECEEFD" stop-opacity="0.2"/>
<stop offset="1" stop-color="#F0F0FF"/>
</radialGradient>
<linearGradient id="paint1_linear_265_911" x1="24" y1="16" x2="24" y2="32.8" gradientUnits="userSpaceOnUse">
<stop stop-color="#6F71FF"/>
<stop offset="1" stop-color="#574DFC"/>
</linearGradient>
<linearGradient id="paint2_linear_265_911" x1="29.1223" y1="16.0127" x2="29.1223" y2="21.7288" gradientUnits="userSpaceOnUse">
<stop stop-color="#6F71FF"/>
<stop offset="1" stop-color="#574DFC"/>
</linearGradient>
<linearGradient id="paint3_linear_265_911" x1="22.736" y1="24.61" x2="22.736" y2="25.87" gradientUnits="userSpaceOnUse">
<stop stop-color="#6F71FF"/>
<stop offset="1" stop-color="#574DFC"/>
</linearGradient>
<linearGradient id="paint4_linear_265_911" x1="21.8939" y1="27.9699" x2="21.8939" y2="29.2299" gradientUnits="userSpaceOnUse">
<stop stop-color="#6F71FF"/>
<stop offset="1" stop-color="#574DFC"/>
</linearGradient>
</defs>
</svg>
