<svg width="48" height="48" viewBox="0 0 48 48" fill="none" xmlns="http://www.w3.org/2000/svg">
<rect width="48" height="48" rx="24" fill="url(#paint0_radial_267_936)"/>
<path opacity="0.4" fill-rule="evenodd" clip-rule="evenodd" d="M22.7708 15.8889H19.4472C16.7138 15.8889 15 17.8241 15 20.5636V27.954C15 30.6936 16.7058 32.6287 19.4472 32.6287H27.2908C30.0331 32.6287 31.7389 30.6936 31.7389 27.954V24.3735" fill="url(#paint1_linear_267_936)"/>
<path d="M31.8133 16.1908C30.2519 14.6206 28.7253 14.5857 27.1202 16.1908L26.1345 17.1678C26.0472 17.255 26.0211 17.3771 26.056 17.4905C26.6666 19.6277 28.3764 21.3375 30.5136 21.9481C30.5397 21.9568 30.5833 21.9568 30.6095 21.9568C30.6967 21.9568 30.784 21.9219 30.845 21.8609L31.8133 20.8839C32.6071 20.0901 32.9997 19.3311 32.9997 18.5548C32.9997 17.7697 32.6071 16.9933 31.8133 16.1908Z" fill="url(#paint2_linear_267_936)"/>
<path d="M29.0576 22.681C28.822 22.5676 28.5952 22.4542 28.3859 22.3233C28.2114 22.2187 28.0369 22.1053 27.8712 21.9831C27.7742 21.9225 27.6687 21.8408 27.5607 21.7527C27.4651 21.6746 27.3653 21.5994 27.278 21.5121C27.0076 21.294 26.7197 20.9974 26.4493 20.6746C26.3613 20.5866 26.2924 20.4808 26.2156 20.3829C26.1478 20.2965 26.0729 20.1921 26.0044 20.0815C25.9085 19.9593 25.7951 19.7849 25.6904 19.6017C25.5595 19.3836 25.4461 19.1655 25.3414 18.9387C25.1957 18.6249 24.781 18.5309 24.5364 18.7755L20.3692 22.9427C20.0639 23.248 19.7673 23.8237 19.7062 24.2512L19.3311 26.8507C19.2526 27.4003 19.4009 27.915 19.7411 28.2552C20.029 28.543 20.4215 28.6913 20.8577 28.6913C20.9536 28.6913 21.0496 28.6826 21.1456 28.6739L23.7364 28.3075C24.1638 28.2464 24.7395 27.9586 25.0449 27.6445L29.22 23.4694C29.4565 23.2329 29.3649 22.8127 29.0576 22.681Z" fill="url(#paint3_linear_267_936)"/>
<defs>
<radialGradient id="paint0_radial_267_936" cx="0" cy="0" r="1" gradientUnits="userSpaceOnUse" gradientTransform="translate(19.4483 24) rotate(79.2611) scale(24.4278)">
<stop stop-color="#ECEEFD" stop-opacity="0.2"/>
<stop offset="1" stop-color="#F0F0FF"/>
</radialGradient>
<linearGradient id="paint1_linear_267_936" x1="23.3694" y1="15.8889" x2="23.3694" y2="32.6287" gradientUnits="userSpaceOnUse">
<stop stop-color="#6F71FF"/>
<stop offset="1" stop-color="#574DFC"/>
</linearGradient>
<linearGradient id="paint2_linear_267_936" x1="29.5204" y1="15" x2="29.5204" y2="21.9568" gradientUnits="userSpaceOnUse">
<stop stop-color="#6F71FF"/>
<stop offset="1" stop-color="#574DFC"/>
</linearGradient>
<linearGradient id="paint3_linear_267_936" x1="24.5243" y1="18.2496" x2="24.5243" y2="28.6913" gradientUnits="userSpaceOnUse">
<stop stop-color="#6F71FF"/>
<stop offset="1" stop-color="#574DFC"/>
</linearGradient>
</defs>
</svg>
