<svg width="48" height="48" viewBox="0 0 48 48" fill="none" xmlns="http://www.w3.org/2000/svg">
<rect width="48" height="48" rx="24" fill="url(#paint0_radial_267_978)"/>
<path d="M32.4893 18.4982V20.6145C32.4893 21.9963 31.6148 22.8708 30.2331 22.8708H27.2422V16.7579C27.2422 15.7871 28.038 14.9913 29.0087 15.0001C29.962 15.0088 30.8365 15.3936 31.4661 16.0233C32.0958 16.6617 32.4893 17.5362 32.4893 18.4982Z" fill="url(#paint1_linear_267_978)"/>
<path opacity="0.4" d="M15 19.3727V31.6161C15 32.3419 15.8221 32.7529 16.3992 32.3157L17.8947 31.1963C18.2445 30.9339 18.7342 30.9689 19.0491 31.2837L20.5008 32.7442C20.8418 33.0853 21.4015 33.0853 21.7426 32.7442L23.2118 31.275C23.5179 30.9689 24.0076 30.9339 24.3487 31.1963L25.8441 32.3157C26.4213 32.7442 27.2434 32.3332 27.2434 31.6161V16.7491C27.2434 15.7871 28.0304 15.0001 28.9924 15.0001H19.3726H18.4981C15.8745 15.0001 15 16.5655 15 18.4982V19.3727Z" fill="url(#paint2_linear_267_978)"/>
<path d="M23.7482 23.9727H21.1246C20.7661 23.9727 20.4688 24.27 20.4688 24.6286C20.4688 24.9871 20.7661 25.2844 21.1246 25.2844H23.7482C24.1068 25.2844 24.4041 24.9871 24.4041 24.6286C24.4041 24.27 24.1068 23.9727 23.7482 23.9727Z" fill="url(#paint3_linear_267_978)"/>
<path d="M21.1246 21.7864H23.7482C24.1068 21.7864 24.4041 21.4891 24.4041 21.1305C24.4041 20.7719 24.1068 20.4746 23.7482 20.4746H21.1246C20.7661 20.4746 20.4688 20.7719 20.4688 21.1305C20.4688 21.4891 20.7661 21.7864 21.1246 21.7864Z" fill="url(#paint4_linear_267_978)"/>
<path d="M18.4741 20.2559C17.9844 20.2559 17.5996 20.6494 17.5996 21.1304C17.5996 21.6114 17.9931 22.0049 18.4741 22.0049C18.9551 22.0049 19.3487 21.6114 19.3487 21.1304C19.3487 20.6494 18.9551 20.2559 18.4741 20.2559Z" fill="url(#paint5_linear_267_978)"/>
<path d="M18.4741 23.754C17.9844 23.754 17.5996 24.1476 17.5996 24.6286C17.5996 25.1095 17.9931 25.5031 18.4741 25.5031C18.9551 25.5031 19.3487 25.1095 19.3487 24.6286C19.3487 24.1476 18.9551 23.754 18.4741 23.754Z" fill="url(#paint6_linear_267_978)"/>
<defs>
<radialGradient id="paint0_radial_267_978" cx="0" cy="0" r="1" gradientUnits="userSpaceOnUse" gradientTransform="translate(19.4483 24) rotate(79.2611) scale(24.4278)">
<stop stop-color="#ECEEFD" stop-opacity="0.2"/>
<stop offset="1" stop-color="#F0F0FF"/>
</radialGradient>
<linearGradient id="paint1_linear_267_978" x1="29.8658" y1="15" x2="29.8658" y2="22.8708" gradientUnits="userSpaceOnUse">
<stop stop-color="#6F71FF"/>
<stop offset="1" stop-color="#574DFC"/>
</linearGradient>
<linearGradient id="paint2_linear_267_978" x1="21.9962" y1="15.0001" x2="21.9962" y2="33" gradientUnits="userSpaceOnUse">
<stop stop-color="#6F71FF"/>
<stop offset="1" stop-color="#574DFC"/>
</linearGradient>
<linearGradient id="paint3_linear_267_978" x1="22.4364" y1="23.9727" x2="22.4364" y2="25.2844" gradientUnits="userSpaceOnUse">
<stop stop-color="#6F71FF"/>
<stop offset="1" stop-color="#574DFC"/>
</linearGradient>
<linearGradient id="paint4_linear_267_978" x1="22.4364" y1="20.4746" x2="22.4364" y2="21.7864" gradientUnits="userSpaceOnUse">
<stop stop-color="#6F71FF"/>
<stop offset="1" stop-color="#574DFC"/>
</linearGradient>
<linearGradient id="paint5_linear_267_978" x1="18.4741" y1="20.2559" x2="18.4741" y2="22.0049" gradientUnits="userSpaceOnUse">
<stop stop-color="#6F71FF"/>
<stop offset="1" stop-color="#574DFC"/>
</linearGradient>
<linearGradient id="paint6_linear_267_978" x1="18.4741" y1="23.754" x2="18.4741" y2="25.5031" gradientUnits="userSpaceOnUse">
<stop stop-color="#6F71FF"/>
<stop offset="1" stop-color="#574DFC"/>
</linearGradient>
</defs>
</svg>
