<svg width="48" height="48" viewBox="0 0 48 48" fill="none" xmlns="http://www.w3.org/2000/svg">
<rect width="48" height="48" rx="24" fill="url(#paint0_radial_267_1020)"/>
<path fill-rule="evenodd" clip-rule="evenodd" d="M15.3437 21.0297C14.8854 22.9834 14.8854 25.0166 15.3437 26.9703C16.0055 29.7916 18.2084 31.9945 21.0297 32.6563C22.9834 33.1146 25.0166 33.1146 26.9703 32.6563C29.7916 31.9945 31.9945 29.7916 32.6563 26.9702C33.1146 25.0166 33.1146 22.9834 32.6563 21.0297C31.9945 18.2084 29.7916 16.0055 26.9703 15.3437C25.0166 14.8854 22.9834 14.8854 21.0297 15.3437C18.2084 16.0055 16.0055 18.2084 15.3437 21.0297ZM24.7658 27.207C24.7658 27.6035 24.4443 27.9249 24.0478 27.9249C23.6513 27.9249 23.3299 27.6035 23.3299 27.207C23.3299 26.8105 23.6513 26.489 24.0478 26.489C24.4443 26.489 24.7658 26.8105 24.7658 27.207ZM22.6598 21.9898C22.6598 21.2496 23.2598 20.6496 24 20.6496C24.7401 20.6496 25.3402 21.2496 25.3402 21.9898V22.1059C25.3402 22.4921 25.1867 22.8626 24.9136 23.1357L23.5938 24.4555C23.3695 24.6798 23.3695 25.0434 23.5938 25.2678C23.8181 25.4921 24.1818 25.4921 24.4061 25.2678L25.7259 23.948C26.2145 23.4594 26.4889 22.7968 26.4889 22.1059V21.9898C26.4889 20.6151 25.3746 19.5008 24 19.5008C22.6254 19.5008 21.511 20.6151 21.511 21.9898V22.4684C21.511 22.7856 21.7682 23.0428 22.0854 23.0428C22.4026 23.0428 22.6598 22.7856 22.6598 22.4684V21.9898Z" fill="url(#paint1_linear_267_1020)"/>
<defs>
<radialGradient id="paint0_radial_267_1020" cx="0" cy="0" r="1" gradientUnits="userSpaceOnUse" gradientTransform="translate(19.4483 24) rotate(79.2611) scale(24.4278)">
<stop stop-color="#ECEEFD" stop-opacity="0.2"/>
<stop offset="1" stop-color="#F0F0FF"/>
</radialGradient>
<linearGradient id="paint1_linear_267_1020" x1="24" y1="15" x2="24" y2="33" gradientUnits="userSpaceOnUse">
<stop stop-color="#6F71FF"/>
<stop offset="1" stop-color="#574DFC"/>
</linearGradient>
</defs>
</svg>
