<svg width="48" height="48" viewBox="0 0 48 48" fill="none" xmlns="http://www.w3.org/2000/svg">
<rect width="48" height="48" rx="24" fill="url(#paint0_radial_265_896)"/>
<path d="M30.3916 22.2109L29.1209 23.4816L26.5625 20.9232L27.8332 19.6525C28.1913 19.2943 28.6519 19.1237 29.1124 19.1237C29.5729 19.1237 30.0334 19.2943 30.3916 19.6525C31.0994 20.3603 31.0994 21.5031 30.3916 22.2109Z" fill="url(#paint1_linear_265_896)"/>
<path opacity="0.4" d="M29.1198 23.4814L19.3041 33.2972C18.5963 34.005 17.4535 34.005 16.7457 33.2972C16.0379 32.5893 16.0379 31.4466 16.7457 30.7388L26.5614 20.923L29.1198 23.4814Z" fill="url(#paint2_linear_265_896)"/>
<path d="M24.164 16.7989L24.7759 14.7245C24.8356 14.5305 24.7759 14.3216 24.6416 14.1724C24.5072 14.0231 24.2685 13.9634 24.0745 14.0231L22.0001 14.635L19.9257 14.0231C19.7317 13.9634 19.5228 14.0231 19.3735 14.1575C19.2243 14.3067 19.1795 14.5156 19.2392 14.7096L19.8362 16.7989L19.2243 18.8733C19.1646 19.0673 19.2243 19.2762 19.3586 19.4255C19.5079 19.5747 19.7168 19.6195 19.9108 19.5598L22.0001 18.9628L24.0745 19.5747C24.1342 19.5896 24.1789 19.6045 24.2386 19.6045C24.3878 19.6045 24.5222 19.5448 24.6416 19.4404C24.7908 19.2911 24.8356 19.0822 24.7759 18.8882L24.164 16.7989Z" fill="url(#paint3_linear_265_896)"/>
<path d="M18.836 23.9164L19.1856 22.731C19.2197 22.6201 19.1856 22.5007 19.1089 22.4155C19.0236 22.3302 18.9042 22.3046 18.7933 22.3387L17.5994 22.6798L16.414 22.3302C16.3032 22.2961 16.1838 22.3302 16.0985 22.4069C16.0132 22.4922 15.9876 22.6116 16.0218 22.7225L16.3629 23.9164L16.0132 25.1018C15.9791 25.2126 16.0132 25.332 16.09 25.4173C16.1753 25.5026 16.2946 25.5282 16.4055 25.4941L17.5909 25.1444L18.7763 25.4941C18.8019 25.5026 18.836 25.5026 18.8701 25.5026C18.9554 25.5026 19.0321 25.4685 19.1004 25.4088C19.1856 25.3235 19.2112 25.2041 19.1771 25.0932L18.836 23.9164Z" fill="url(#paint4_linear_265_896)"/>
<path d="M31.627 28.1803L31.9766 26.9949C32.0107 26.8841 31.9766 26.7647 31.8999 26.6794C31.8146 26.5941 31.6952 26.5685 31.5843 26.6026L30.3989 26.9523L29.2135 26.6026C29.1027 26.5685 28.9833 26.6026 28.898 26.6794C28.8127 26.7647 28.7871 26.8841 28.8213 26.9949L29.1709 28.1803L28.8213 29.3657C28.7871 29.4766 28.8213 29.596 28.898 29.6812C28.9833 29.7665 29.1027 29.7921 29.2135 29.758L30.3989 29.4083L31.5843 29.758C31.6099 29.7665 31.644 29.7665 31.6781 29.7665C31.7634 29.7665 31.8402 29.7324 31.9084 29.6727C31.9937 29.5874 32.0193 29.468 31.9851 29.3572L31.627 28.1803Z" fill="url(#paint5_linear_265_896)"/>
<defs>
<radialGradient id="paint0_radial_265_896" cx="0" cy="0" r="1" gradientUnits="userSpaceOnUse" gradientTransform="translate(19.4483 24) rotate(79.2611) scale(24.4278)">
<stop stop-color="#ECEEFD" stop-opacity="0.2"/>
<stop offset="1" stop-color="#F0F0FF"/>
</radialGradient>
<linearGradient id="paint1_linear_265_896" x1="28.7425" y1="19.1237" x2="28.7425" y2="23.4816" gradientUnits="userSpaceOnUse">
<stop stop-color="#6F71FF"/>
<stop offset="1" stop-color="#574DFC"/>
</linearGradient>
<linearGradient id="paint2_linear_265_896" x1="22.6673" y1="20.923" x2="22.6673" y2="33.828" gradientUnits="userSpaceOnUse">
<stop stop-color="#6F71FF"/>
<stop offset="1" stop-color="#574DFC"/>
</linearGradient>
<linearGradient id="paint3_linear_265_896" x1="22.0013" y1="14" x2="22.0013" y2="19.6045" gradientUnits="userSpaceOnUse">
<stop stop-color="#6F71FF"/>
<stop offset="1" stop-color="#574DFC"/>
</linearGradient>
<linearGradient id="paint4_linear_265_896" x1="17.5994" y1="22.317" x2="17.5994" y2="25.5087" gradientUnits="userSpaceOnUse">
<stop stop-color="#6F71FF"/>
<stop offset="1" stop-color="#574DFC"/>
</linearGradient>
<linearGradient id="paint5_linear_265_896" x1="30.4032" y1="26.588" x2="30.4032" y2="29.7726" gradientUnits="userSpaceOnUse">
<stop stop-color="#6F71FF"/>
<stop offset="1" stop-color="#574DFC"/>
</linearGradient>
</defs>
</svg>
