<svg width="48" height="48" viewBox="0 0 48 48" fill="none" xmlns="http://www.w3.org/2000/svg">
<rect width="48" height="48" rx="24" fill="url(#paint0_radial_267_964)"/>
<path opacity="0.4" d="M33.6363 22.5204L32.7079 26.4802C31.9122 29.9 30.3396 31.2831 27.384 30.9989C26.9103 30.9611 26.3987 30.8758 25.8493 30.7432L24.2578 30.3642C20.3074 29.4264 19.0854 27.4749 20.0138 23.5151L20.9422 19.5458C21.1316 18.7406 21.359 18.0395 21.6432 17.4617C22.7515 15.1691 24.6367 14.5534 27.8008 15.3018L29.3828 15.6712C33.3521 16.5996 34.5647 18.5606 33.6363 22.5204Z" fill="url(#paint1_linear_267_964)"/>
<path d="M25.8507 30.7432C26.3529 30.8645 26.4843 31.5206 26.0055 31.7149C25.741 31.8222 25.459 31.9243 25.1591 32.0221L23.6624 32.5147C19.9015 33.7273 17.9216 32.7137 16.6995 28.9528L15.4869 25.2109C14.2744 21.45 15.2785 19.4606 19.0394 18.248L20.5362 17.7554C20.9866 17.6126 21.3673 18.0776 21.2229 18.5276C21.121 18.8449 21.0285 19.1849 20.9435 19.5458L20.0152 23.5151C19.0868 27.475 20.3088 29.4264 24.2592 30.3643L25.8507 30.7432Z" fill="url(#paint2_linear_267_964)"/>
<path d="M29.6884 22.5868C29.6316 22.5868 29.5747 22.5773 29.5084 22.5678L24.9139 21.4026C24.535 21.3079 24.3076 20.9195 24.4023 20.5405C24.4971 20.1616 24.8855 19.9342 25.2644 20.029L29.8589 21.1942C30.2379 21.2889 30.4652 21.6773 30.3705 22.0563C30.2947 22.3689 30.001 22.5868 29.6884 22.5868Z" fill="url(#paint3_linear_267_964)"/>
<path d="M26.9131 25.7886C26.8563 25.7886 26.7994 25.7792 26.7331 25.7697L23.9764 25.0687C23.5975 24.9739 23.3701 24.5855 23.4648 24.2066C23.5596 23.8277 23.948 23.6003 24.3269 23.6951L27.0836 24.3961C27.4625 24.4908 27.6899 24.8792 27.5952 25.2581C27.5194 25.5802 27.2352 25.7886 26.9131 25.7886Z" fill="url(#paint4_linear_267_964)"/>
<defs>
<radialGradient id="paint0_radial_267_964" cx="0" cy="0" r="1" gradientUnits="userSpaceOnUse" gradientTransform="translate(19.4483 24) rotate(79.2611) scale(24.4278)">
<stop stop-color="#ECEEFD" stop-opacity="0.2"/>
<stop offset="1" stop-color="#F0F0FF"/>
</radialGradient>
<linearGradient id="paint1_linear_267_964" x1="26.8255" y1="15" x2="26.8255" y2="31.0351" gradientUnits="userSpaceOnUse">
<stop stop-color="#6F71FF"/>
<stop offset="1" stop-color="#574DFC"/>
</linearGradient>
<linearGradient id="paint2_linear_267_964" x1="21.1927" y1="17.4617" x2="21.1927" y2="33" gradientUnits="userSpaceOnUse">
<stop stop-color="#6F71FF"/>
<stop offset="1" stop-color="#574DFC"/>
</linearGradient>
<linearGradient id="paint3_linear_267_964" x1="27.3864" y1="20.0075" x2="27.3864" y2="22.5868" gradientUnits="userSpaceOnUse">
<stop stop-color="#6F71FF"/>
<stop offset="1" stop-color="#574DFC"/>
</linearGradient>
<linearGradient id="paint4_linear_267_964" x1="25.53" y1="23.6736" x2="25.53" y2="25.7886" gradientUnits="userSpaceOnUse">
<stop stop-color="#6F71FF"/>
<stop offset="1" stop-color="#574DFC"/>
</linearGradient>
</defs>
</svg>
