<svg width="48" height="48" viewBox="0 0 48 48" fill="none" xmlns="http://www.w3.org/2000/svg">
<rect width="48" height="48" rx="24" fill="url(#paint0_radial_267_1076)"/>
<path opacity="0.4" d="M32.3077 33H15.6923C15.3138 33 15 32.6939 15 32.3247C15 31.9556 15.3138 31.6495 15.6923 31.6495H32.3077C32.6861 31.6495 33 31.9556 33 32.3247C33 32.6939 32.6861 33 32.3077 33Z" fill="url(#paint1_linear_267_1076)"/>
<path opacity="0.4" d="M30.4819 16.3268C28.6911 14.5803 26.9373 14.5353 25.1003 16.3268L23.9834 17.4162C23.8911 17.5062 23.8542 17.6502 23.8911 17.7763C24.5926 20.162 26.5496 22.0706 28.9957 22.7548C29.0326 22.7638 29.0696 22.7728 29.1065 22.7728C29.208 22.7728 29.3003 22.7368 29.3742 22.6648L30.4819 21.5755C31.3957 20.6932 31.8388 19.8379 31.8388 18.9737C31.848 18.0824 31.4049 17.2181 30.4819 16.3268Z" fill="url(#paint2_linear_267_1076)"/>
<path d="M27.3306 23.574C27.063 23.448 26.8045 23.3219 26.5553 23.1779C26.3522 23.0609 26.1583 22.9348 25.9645 22.7998C25.8553 22.7309 25.7326 22.6401 25.609 22.5428C25.5008 22.4575 25.3893 22.3738 25.2906 22.2776C25.0321 22.0637 24.747 21.7979 24.4804 21.5022C24.3856 21.397 24.2897 21.29 24.2014 21.1793C24.1091 21.0713 23.9522 20.8912 23.8137 20.6841C23.703 20.5491 23.5737 20.351 23.4537 20.153C23.306 19.9099 23.1768 19.6668 23.0476 19.4147C22.8765 19.0573 22.4074 18.9498 22.1237 19.2264L16.9276 24.2943C16.8076 24.4113 16.6968 24.6364 16.6691 24.7894L16.1706 28.2375C16.0783 28.8497 16.2537 29.4258 16.6414 29.813C16.9737 30.1281 17.4353 30.2991 17.9337 30.2991C18.0445 30.2991 18.1553 30.2901 18.266 30.2721L21.8106 29.7859C21.9768 29.7589 22.2076 29.6509 22.3183 29.5339L27.5122 24.4683C27.7894 24.1979 27.6873 23.7248 27.3306 23.574Z" fill="url(#paint3_linear_267_1076)"/>
<defs>
<radialGradient id="paint0_radial_267_1076" cx="0" cy="0" r="1" gradientUnits="userSpaceOnUse" gradientTransform="translate(19.4483 24) rotate(79.2611) scale(24.4278)">
<stop stop-color="#ECEEFD" stop-opacity="0.2"/>
<stop offset="1" stop-color="#F0F0FF"/>
</radialGradient>
<linearGradient id="paint1_linear_267_1076" x1="24" y1="31.6495" x2="24" y2="33" gradientUnits="userSpaceOnUse">
<stop stop-color="#6F71FF"/>
<stop offset="1" stop-color="#574DFC"/>
</linearGradient>
<linearGradient id="paint2_linear_267_1076" x1="27.8579" y1="15" x2="27.8579" y2="22.7728" gradientUnits="userSpaceOnUse">
<stop stop-color="#6F71FF"/>
<stop offset="1" stop-color="#574DFC"/>
</linearGradient>
<linearGradient id="paint3_linear_267_1076" x1="22.1309" y1="18.6405" x2="22.1309" y2="30.2991" gradientUnits="userSpaceOnUse">
<stop stop-color="#6F71FF"/>
<stop offset="1" stop-color="#574DFC"/>
</linearGradient>
</defs>
</svg>
