<svg width="48" height="48" viewBox="0 0 48 48" fill="none" xmlns="http://www.w3.org/2000/svg">
<rect width="48" height="48" rx="24" fill="url(#paint0_radial_267_1062)"/>
<path d="M31.177 32H25.1923C24.8352 32 24.5547 31.711 24.5547 31.3624C24.5547 31.0139 24.8437 30.7249 25.1923 30.7249H31.177C31.5341 30.7249 31.8146 31.0139 31.8146 31.3624C31.8146 31.711 31.5341 32 31.177 32Z" fill="url(#paint1_linear_267_1062)"/>
<path opacity="0.4" d="M26.3982 27.1884L22.3602 31.2264C21.4166 32.17 19.9035 32.221 18.9003 31.3794C18.8408 31.3284 18.7898 31.2774 18.7388 31.2264L17.9992 30.4868L16.4775 28.9651L15.7464 28.234C15.6869 28.1745 15.6359 28.115 15.5849 28.0555C14.7518 27.0524 14.8113 25.5562 15.7464 24.6211L18.8833 21.4927L19.7844 20.5916L26.3982 27.1884Z" fill="url(#paint2_linear_267_1062)"/>
<path d="M31.2531 22.3428L26.399 27.1884L19.7852 20.5916L24.6393 15.746C25.6339 14.7513 27.2661 14.7513 28.2607 15.746L31.2531 18.7298C32.2477 19.7245 32.2477 21.3482 31.2531 22.3428Z" fill="url(#paint3_linear_267_1062)"/>
<defs>
<radialGradient id="paint0_radial_267_1062" cx="0" cy="0" r="1" gradientUnits="userSpaceOnUse" gradientTransform="translate(19.4483 24) rotate(79.2611) scale(24.4278)">
<stop stop-color="#ECEEFD" stop-opacity="0.2"/>
<stop offset="1" stop-color="#F0F0FF"/>
</radialGradient>
<linearGradient id="paint1_linear_267_1062" x1="28.1847" y1="30.7249" x2="28.1847" y2="32" gradientUnits="userSpaceOnUse">
<stop stop-color="#6F71FF"/>
<stop offset="1" stop-color="#574DFC"/>
</linearGradient>
<linearGradient id="paint2_linear_267_1062" x1="20.6991" y1="20.5916" x2="20.6991" y2="31.9745" gradientUnits="userSpaceOnUse">
<stop stop-color="#6F71FF"/>
<stop offset="1" stop-color="#574DFC"/>
</linearGradient>
<linearGradient id="paint3_linear_267_1062" x1="25.8921" y1="15" x2="25.8921" y2="27.1884" gradientUnits="userSpaceOnUse">
<stop stop-color="#6F71FF"/>
<stop offset="1" stop-color="#574DFC"/>
</linearGradient>
</defs>
</svg>
