<svg width="48" height="48" viewBox="0 0 48 48" fill="none" xmlns="http://www.w3.org/2000/svg">
<rect width="48" height="48" rx="24" fill="url(#paint0_radial_267_1048)"/>
<path opacity="0.4" d="M31.3 19.536V28.464C31.3 29.8078 31.1784 30.7694 30.867 31.4599C30.8559 31.4845 30.851 31.5139 30.832 31.533C30.634 31.785 30.373 31.911 30.067 31.911C29.59 31.911 29.014 31.596 28.393 30.93C27.655 30.138 26.521 30.201 25.873 31.065L24.964 32.271C24.604 32.757 24.127 33 23.65 33C23.173 33 22.696 32.757 22.336 32.271L21.418 31.056C20.779 30.201 19.654 30.138 18.916 30.921L18.907 30.93C17.89 32.019 16.99 32.181 16.468 31.533C16.449 31.5139 16.4441 31.4845 16.433 31.4599C16.1216 30.7694 16 29.8078 16 28.464V19.536C16 18.1783 16.1241 17.2106 16.4427 16.5186C16.4475 16.5083 16.4472 16.4998 16.4522 16.4896C16.4573 16.4792 16.4718 16.4711 16.4791 16.462C16.994 15.8214 17.8972 15.9888 18.907 17.07L18.916 17.079C19.654 17.862 20.779 17.799 21.418 16.944L22.336 15.729C22.696 15.243 23.173 15 23.65 15C24.127 15 24.604 15.243 24.964 15.729L25.873 16.935C26.521 17.799 27.655 17.862 28.393 17.07C29.014 16.404 29.59 16.089 30.067 16.089C30.3674 16.089 30.6244 16.2191 30.821 16.4623C30.8283 16.4712 30.8426 16.4792 30.8478 16.4896C30.8529 16.4998 30.8525 16.5083 30.8573 16.5187C31.1759 17.2106 31.3 18.1783 31.3 19.536Z" fill="url(#paint1_linear_267_1048)"/>
<path d="M27.6992 23.1H20.4992C20.1302 23.1 19.8242 22.794 19.8242 22.425C19.8242 22.056 20.1302 21.75 20.4992 21.75H27.6992C28.0682 21.75 28.3742 22.056 28.3742 22.425C28.3742 22.794 28.0682 23.1 27.6992 23.1Z" fill="url(#paint2_linear_267_1048)"/>
<path d="M25.8992 26.2501H20.4992C20.1302 26.2501 19.8242 25.9441 19.8242 25.5751C19.8242 25.2061 20.1302 24.9001 20.4992 24.9001H25.8992C26.2682 24.9001 26.5742 25.2061 26.5742 25.5751C26.5742 25.9441 26.2682 26.2501 25.8992 26.2501Z" fill="url(#paint3_linear_267_1048)"/>
<defs>
<radialGradient id="paint0_radial_267_1048" cx="0" cy="0" r="1" gradientUnits="userSpaceOnUse" gradientTransform="translate(19.4483 24) rotate(79.2611) scale(24.4278)">
<stop stop-color="#ECEEFD" stop-opacity="0.2"/>
<stop offset="1" stop-color="#F0F0FF"/>
</radialGradient>
<linearGradient id="paint1_linear_267_1048" x1="23.65" y1="15" x2="23.65" y2="33" gradientUnits="userSpaceOnUse">
<stop stop-color="#6F71FF"/>
<stop offset="1" stop-color="#574DFC"/>
</linearGradient>
<linearGradient id="paint2_linear_267_1048" x1="24.0992" y1="21.75" x2="24.0992" y2="23.1" gradientUnits="userSpaceOnUse">
<stop stop-color="#6F71FF"/>
<stop offset="1" stop-color="#574DFC"/>
</linearGradient>
<linearGradient id="paint3_linear_267_1048" x1="23.1992" y1="24.9001" x2="23.1992" y2="26.2501" gradientUnits="userSpaceOnUse">
<stop stop-color="#6F71FF"/>
<stop offset="1" stop-color="#574DFC"/>
</linearGradient>
</defs>
</svg>
