<svg width="66" height="55" viewBox="0 0 66 55" fill="none" xmlns="http://www.w3.org/2000/svg">
<path d="M9.31577 6.23743C4.39846 6.8343 0.957494 7.84055 0 8.05542V54.0001L2.37184 53.4053C12.0643 50.9849 22.8946 50.9849 32.5869 53.4053L9.31577 6.23743Z" fill="#704C55"/>
<path d="M61.3543 7.1835C51.9925 5.24216 41.8521 5.4527 32.5862 7.63755C31.9229 7.31499 24.0728 0.764518 11.4557 0.122073C10.8117 0.089232 10.216 0 9.54629 0H7.6369V45.8253H9.54629C22.7746 45.8253 31.1388 52.7331 32.5862 53.4628C32.9732 53.4138 46.7987 49.4121 62.8013 53.405L65.1731 53.9998V8.0571C64.2195 7.83358 62.1471 7.34783 61.3543 7.1835Z" fill="#FF6C6C"/>
<path d="M61.7682 7.33032C52.4063 5.38898 42.2659 5.59952 33.0001 7.78437V12.9923V49.4459V53.6096C33.387 53.5606 47.2125 49.5589 63.2151 53.5519L65.5869 54.1466V8.20392C64.6334 7.9804 62.5609 7.49465 61.7682 7.33032Z" fill="#FA2626"/>
<g filter="url(#filter0_d_47_1625)">
<path d="M44.5518 37.1754C43.887 37.6152 43 37.1385 43 36.3414V22.8607C43 22.0636 43.887 21.5869 44.5518 22.0267L54.7395 28.767C55.3371 29.1624 55.3371 30.0396 54.7395 30.435L44.5518 37.1754Z" fill="white"/>
</g>
<defs>
<filter id="filter0_d_47_1625" x="41" y="20.859" width="16.1877" height="19.4841" filterUnits="userSpaceOnUse" color-interpolation-filters="sRGB">
<feFlood flood-opacity="0" result="BackgroundImageFix"/>
<feColorMatrix in="SourceAlpha" type="matrix" values="0 0 0 0 0 0 0 0 0 0 0 0 0 0 0 0 0 0 127 0" result="hardAlpha"/>
<feOffset dy="1"/>
<feGaussianBlur stdDeviation="1"/>
<feComposite in2="hardAlpha" operator="out"/>
<feColorMatrix type="matrix" values="0 0 0 0 0 0 0 0 0 0 0 0 0 0 0 0 0 0 0.2 0"/>
<feBlend mode="normal" in2="BackgroundImageFix" result="effect1_dropShadow_47_1625"/>
<feBlend mode="normal" in="SourceGraphic" in2="effect1_dropShadow_47_1625" result="shape"/>
</filter>
</defs>
</svg>
