<svg width="50" height="66" viewBox="0 0 50 66" fill="none" xmlns="http://www.w3.org/2000/svg">
<path d="M0 4.12565V61.8757C0 64.1441 1.91899 66 4.26457 66H45.7341C48.0803 66 50 64.1435 50 61.8744V15.1923C50 13.9257 49.4797 12.7111 48.5538 11.8154L37.7829 1.39868C36.8568 0.503153 35.6008 0 34.2912 0H4.26591C1.91966 0 0 1.85654 0 4.12565Z" fill="url(#paint0_linear_208_858)"/>
<path d="M37.7829 1.39861C37.1487 0.7852 36.3594 0.35607 35.5044 0.146423V13.5952L50.0002 27.6143V15.1921C50.0002 13.9255 49.4799 12.7109 48.554 11.8152L37.7829 1.39861Z" fill="url(#paint1_linear_208_858)"/>
<path d="M49.8534 14.0338C49.8692 14.1001 49.8838 14.1646 49.897 14.2269H36.8306C35.9054 14.2269 35.1553 13.5015 35.1553 12.6067V0.0751953C35.2574 0.0927953 35.3647 0.113372 35.4754 0.137054C36.4494 0.345407 37.3375 0.829795 38.0429 1.51192L48.4341 11.5614C49.1367 12.2409 49.6301 13.0975 49.8534 14.0338Z" fill="url(#paint2_linear_208_858)"/>
<path d="M50 57.8731V61.8744C50 64.1435 48.0803 66 45.7341 66H4.26457C1.91899 66 0 64.144 0 61.8757V57.8731H50Z" fill="url(#paint3_linear_208_858)"/>
<path d="M11.3005 30.5584H37.1116C37.7549 30.5584 38.2764 30.0541 38.2764 29.4319V26.6849C38.2764 26.0627 37.7549 25.5584 37.1116 25.5584H11.3005C10.6572 25.5584 10.1357 26.0627 10.1357 26.6849V29.4319C10.1357 30.0541 10.6572 30.5584 11.3005 30.5584Z" fill="#EBEFF0"/>
<path d="M11.3005 38.8039H37.1116C37.7549 38.8039 38.2764 38.2996 38.2764 37.6774V34.9304C38.2764 34.3082 37.7549 33.8039 37.1116 33.8039H11.3005C10.6572 33.8039 10.1357 34.3082 10.1357 34.9304V37.6774C10.1357 38.2996 10.6572 38.8039 11.3005 38.8039Z" fill="#EBEFF0"/>
<path d="M11.1648 47H36.9765C37.6198 47 38.1413 46.4957 38.1413 45.8735V43.1265C38.1413 42.5043 37.6198 42 36.9765 42H11.1648C10.5215 42 10 42.5043 10 43.1265V45.8736C10 46.4957 10.5215 47 11.1648 47Z" fill="#EBEFF0"/>
<path d="M10.9791 55.2948H24.0453C24.511 55.2948 24.8886 54.9296 24.8886 54.4792V51.1104C24.8886 50.66 24.511 50.2948 24.0453 50.2948H10.9791C10.5133 50.2948 10.1357 50.66 10.1357 51.1104V54.4792C10.1357 54.9296 10.5133 55.2948 10.9791 55.2948Z" fill="#EBEFF0"/>
<defs>
<linearGradient id="paint0_linear_208_858" x1="11.9069" y1="25.7331" x2="43.2841" y2="58.1769" gradientUnits="userSpaceOnUse">
<stop stop-color="#7FAEF4"/>
<stop offset="1" stop-color="#4C8DF1"/>
</linearGradient>
<linearGradient id="paint1_linear_208_858" x1="45.7552" y1="22.4824" x2="40.9037" y2="7.82416" gradientUnits="userSpaceOnUse">
<stop stop-color="#4C8DF1" stop-opacity="0"/>
<stop offset="1" stop-color="#4256AC"/>
</linearGradient>
<linearGradient id="paint2_linear_208_858" x1="36.8115" y1="7.6001" x2="42.5956" y2="13.5811" gradientUnits="userSpaceOnUse">
<stop stop-color="#A7C5FD"/>
<stop offset="1" stop-color="#7FAEF4"/>
</linearGradient>
<linearGradient id="paint3_linear_208_858" x1="25" y1="60.0083" x2="25" y2="66.4255" gradientUnits="userSpaceOnUse">
<stop stop-color="#4C8DF1" stop-opacity="0"/>
<stop offset="1" stop-color="#4256AC"/>
</linearGradient>
</defs>
</svg>
