<svg width="66" height="66" viewBox="0 0 66 66" fill="none" xmlns="http://www.w3.org/2000/svg">
<path d="M44.4008 23.5455H9.10996C6.90595 26.4073 5.52202 29.3737 4.98043 32.4136C4.30141 36.2252 5.27083 40.1161 7.64023 43.0889C9.83454 45.842 12.9439 47.4509 16.3957 47.6191C16.5986 47.6291 36.9123 47.6291 37.1152 47.6191C40.5669 47.4509 43.6764 45.842 45.8708 43.0887C48.2401 40.1159 49.2095 36.2249 48.5303 32.4135C47.9886 29.3737 46.6048 26.4073 44.4008 23.5455Z" fill="url(#paint0_linear_208_800)"/>
<path d="M51.388 66L26.7556 65.7409L2.12274 66C0.9504 66 0 65.0496 0 63.8772C0 52.552 9.18086 43.371 20.5061 43.371H33.0045C44.3297 43.371 53.5106 52.5519 53.5106 63.8771C53.5107 65.0496 52.5603 66 51.388 66Z" fill="url(#paint1_linear_208_800)"/>
<path d="M33.0046 43.371H20.5061C20.2601 43.371 20.0157 43.377 19.7717 43.3855V55.2311L30.319 65.7784L51.3879 66C52.5603 66 53.5107 65.0496 53.5107 63.8772C53.5107 52.5519 44.3297 43.371 33.0046 43.371Z" fill="url(#paint2_linear_208_800)"/>
<path d="M0 63.8771C0 65.0496 0.9504 66 2.12274 66L26.7556 65.7409L51.388 66C52.5603 66 53.5107 65.0496 53.5107 63.8772C53.5107 60.8476 52.8532 57.9716 51.6737 55.3837H1.83687C0.657671 57.9716 0 60.8474 0 63.8771Z" fill="url(#paint3_linear_208_800)"/>
<path d="M26.7556 51.3638C30.082 51.3638 32.7786 48.6672 32.7786 45.3408C32.7786 42.0144 30.082 39.3179 26.7556 39.3179C23.4292 39.3179 20.7327 42.0144 20.7327 45.3408C20.7327 48.6672 23.4292 51.3638 26.7556 51.3638Z" fill="url(#paint4_linear_208_800)"/>
<path d="M26.7556 51.3638C30.082 51.3638 32.7786 48.6672 32.7786 45.3408C32.7786 42.0144 30.082 39.3179 26.7556 39.3179C23.4292 39.3179 20.7327 42.0144 20.7327 45.3408C20.7327 48.6672 23.4292 51.3638 26.7556 51.3638Z" fill="url(#paint5_linear_208_800)"/>
<path d="M26.7556 51.3637L17.2523 40.4819L16.6785 40.6781C15.1891 41.1875 14.4362 42.8459 15.0332 44.3024L19.2853 54.6754C19.5578 55.3405 20.3703 55.5904 20.9696 55.1937L26.7556 51.3637Z" fill="url(#paint6_linear_208_800)"/>
<path d="M26.7556 51.3637L36.2587 40.4819L36.8325 40.6781C38.3219 41.1875 39.0748 42.8459 38.4777 44.3024L34.2257 54.6754C33.9531 55.3405 33.1407 55.5904 32.5415 55.1937L26.7556 51.3637Z" fill="url(#paint7_linear_208_800)"/>
<path d="M7.5094 26.8105C7.5094 24.2928 9.25711 22.1834 11.6054 21.629C12.2331 21.4808 12.8331 21.9662 12.8331 22.6112V31.0098C12.8331 31.6548 12.2331 32.1402 11.6054 31.992C9.25698 31.4377 7.5094 29.3282 7.5094 26.8105Z" fill="url(#paint8_linear_208_800)"/>
<path d="M46.0014 26.8105C46.0014 24.2928 44.2536 22.1834 41.9053 21.629C41.2777 21.4808 40.6776 21.9662 40.6776 22.6112V31.0098C40.6776 31.6548 41.2777 32.1402 41.9053 31.992C44.2538 31.4377 46.0014 29.3282 46.0014 26.8105Z" fill="url(#paint9_linear_208_800)"/>
<path d="M26.7554 46.422C18.2505 46.422 11.3558 39.5273 11.3558 31.0224V23.1251C11.3558 14.6202 18.2505 7.72565 26.7553 7.72565C35.2603 7.72565 42.1548 14.6203 42.1548 23.1251V31.0224C42.1549 39.5273 35.2604 46.422 26.7554 46.422Z" fill="url(#paint10_linear_208_800)"/>
<path d="M27.6062 34.8955H25.9047C24.4867 34.8955 23.4131 33.6142 23.6615 32.2181L24.6368 26.735H28.874L29.8494 32.2181C30.0978 33.6142 29.0242 34.8955 27.6062 34.8955Z" fill="url(#paint11_linear_208_800)"/>
<path d="M19.929 30.1241C18.6929 30.1241 17.691 29.1222 17.691 27.8862V26.7386C17.691 25.5026 18.6929 24.5007 19.929 24.5007C21.165 24.5007 22.1669 25.5026 22.1669 26.7386V27.8862C22.1669 29.1222 21.165 30.1241 19.929 30.1241Z" fill="url(#paint12_linear_208_800)"/>
<path d="M33.5819 30.1241C32.3459 30.1241 31.344 29.1222 31.344 27.8862V26.7386C31.344 25.5026 32.3459 24.5007 33.5819 24.5007C34.8179 24.5007 35.8198 25.5026 35.8198 26.7386V27.8862C35.8198 29.1222 34.8179 30.1241 33.5819 30.1241Z" fill="url(#paint13_linear_208_800)"/>
<path d="M27.4979 7.82888C27.5279 5.40758 29.244 3.31215 31.6233 2.86192C33.5487 2.49763 48.6355 19.0925 43.7884 22.9119C41.7739 24.4992 27.3729 17.9042 27.4979 7.82888Z" fill="url(#paint14_linear_208_800)"/>
<path d="M33.4209 10.0005C34.4145 6.87124 33.5118 1.84851 30.2285 1.84851C6.55833 1.84851 7.31488 23.3011 8.64678 23.4535C14.9428 24.1744 30.0081 20.7488 33.4209 10.0005Z" fill="url(#paint15_linear_208_800)"/>
<path d="M11.3558 25.9032V21.3979C11.3558 12.8929 18.2505 5.99837 26.7553 5.99837C35.2602 5.99837 42.1548 12.893 42.1548 21.3979V25.9032H46.929V20.1737C46.9291 9.03204 37.8971 0 26.7554 0C15.6137 0 6.58167 9.03204 6.58167 20.1737V25.9032H11.3558Z" fill="url(#paint16_linear_208_800)"/>
<path d="M26.7553 2.85614C17.0786 2.85614 9.23413 10.8924 9.23413 20.8056V25.9033H11.3558V21.398C11.3558 12.8931 18.2505 5.99852 26.7553 5.99852C35.2603 5.99852 42.1548 12.8932 42.1548 21.398V25.9033H44.2765V20.8056C44.2765 10.8924 36.432 2.85614 26.7553 2.85614Z" fill="url(#paint17_linear_208_800)"/>
<path d="M42.1549 21.3978V25.9032H46.9291V20.1737C46.9291 17.3856 46.3633 14.7295 45.3406 12.3139H39.1903C41.0538 14.8606 42.1549 18.0004 42.1549 21.3978Z" fill="url(#paint18_linear_208_800)"/>
<path d="M11.3558 21.3978C11.3558 18.0004 12.4568 14.8606 14.3205 12.3139H8.17019C7.14745 14.7294 6.58167 17.3854 6.58167 20.1737V25.9032H11.3559L11.3558 21.3978Z" fill="url(#paint19_linear_208_800)"/>
<path d="M10.1713 32.9856H7.30066C4.74555 32.9856 2.67432 30.9142 2.67432 28.3592V24.6046C2.67432 22.0495 4.74568 19.9783 7.30066 19.9783H10.1711L10.1713 32.9856Z" fill="url(#paint20_linear_208_800)"/>
<path d="M9.8034 33.5725C8.94605 33.5725 8.25098 32.8774 8.25098 32.0199V20.944C8.25098 20.0865 8.94605 19.3914 9.8034 19.3914C10.6609 19.3914 11.3558 20.0865 11.3558 20.944V32.0199C11.3558 32.8774 10.6608 33.5725 9.8034 33.5725Z" fill="url(#paint21_linear_208_800)"/>
<path d="M37.5757 43.3004H33.2631V41.3583H37.5757C41.6862 41.3583 45.0303 38.0142 45.0303 33.9037V31.5615H46.9724V33.9037C46.9724 39.0851 42.757 43.3004 37.5757 43.3004Z" fill="url(#paint22_linear_208_800)"/>
<path d="M33.2632 45.3408C35.1288 45.3408 36.6412 43.9926 36.6412 42.3294C36.6412 40.6662 35.1288 39.318 33.2632 39.318C31.3975 39.318 29.8851 40.6662 29.8851 42.3294C29.8851 43.9926 31.3975 45.3408 33.2632 45.3408Z" fill="url(#paint23_linear_208_800)"/>
<path d="M43.3395 32.9856H46.21C48.7651 32.9856 50.8363 30.9142 50.8363 28.3592V24.6046C50.8363 22.0495 48.7651 19.9783 46.21 19.9783H43.3395V32.9856Z" fill="url(#paint24_linear_208_800)"/>
<path d="M43.7074 33.5725C44.5649 33.5725 45.26 32.8774 45.26 32.0199V20.944C45.26 20.0865 44.5649 19.3914 43.7076 19.3914C42.8502 19.3914 42.1552 20.0865 42.1552 20.944V32.0199C42.1549 32.8774 42.85 33.5725 43.7074 33.5725Z" fill="url(#paint25_linear_208_800)"/>
<path d="M52.0647 39.5586C51.4554 39.5586 50.8554 39.596 50.2667 39.6679C48.9786 38.1187 47.0356 37.141 44.8572 37.1413C44.2728 37.1413 43.7051 37.2127 43.1623 37.3473C42.3729 37.543 42.1052 38.5313 42.6923 39.094C43.452 39.8219 44.0482 40.7189 44.4211 41.7243C40.6318 44.0872 38.1295 48.1557 38.1295 52.7793C38.1295 60.0808 44.3686 66 52.0648 66C59.761 66 66 60.0808 66 52.7793C66 45.4776 59.761 39.5586 52.0647 39.5586Z" fill="url(#paint26_linear_208_800)"/>
<path d="M64.3323 59.0555L54.7967 49.5199C54.6394 49.236 54.3371 49.0436 53.9897 49.0436H48.1176C47.5718 49.0436 47.1311 49.4942 47.1474 50.0439C47.1576 50.3858 47.3537 50.6766 47.6335 50.841C47.6335 50.841 49.4636 52.6863 49.4764 52.7052V61.0767H48.1582C47.6268 61.0767 47.1633 61.4863 47.1474 62.0175C47.1363 62.3912 47.3366 62.7188 47.6375 62.8904L50.6824 65.9353C51.137 65.9778 51.5981 66 52.0645 66C57.3667 66 61.9768 63.1906 64.3323 59.0555Z" fill="url(#paint27_linear_208_800)"/>
<path d="M38.1293 52.7793C38.1293 60.0808 44.3683 66 52.0646 66C59.761 66 66 60.0808 66 52.7793C66 52.1279 65.9494 51.4877 65.8535 50.8616H38.2767C38.1808 51.4879 38.1293 52.1278 38.1293 52.7793Z" fill="url(#paint28_linear_208_800)"/>
<path d="M50.1431 46.5687L63.6715 60.0971C64.8054 58.4817 65.5743 56.6161 65.8671 54.6061L53.9865 42.7254L50.1431 46.5687Z" fill="url(#paint29_linear_208_800)"/>
<path d="M56.1005 60.9471H54.7823V49.8362C54.7823 49.3269 54.3695 48.9141 53.8603 48.9141H47.9882C47.4424 48.9141 47.0017 49.3647 47.018 49.9145C47.0339 50.4457 47.4974 50.8554 48.0289 50.8553H49.347V60.9471H48.0289C47.4974 60.9471 47.0339 61.3567 47.018 61.8879C47.0016 62.4375 47.4422 62.8883 47.9882 62.8883H56.1412C56.687 62.8883 57.1277 62.4377 57.1112 61.8879C57.0954 61.3568 56.632 60.9471 56.1005 60.9471Z" fill="url(#paint30_linear_208_800)"/>
<path d="M52.0647 47.3647C53.5656 47.3647 54.7823 46.1479 54.7823 44.647C54.7823 43.1461 53.5656 41.9294 52.0647 41.9294C50.5638 41.9294 49.347 43.1461 49.347 44.647C49.347 46.1479 50.5638 47.3647 52.0647 47.3647Z" fill="url(#paint31_linear_208_800)"/>
<defs>
<linearGradient id="paint0_linear_208_800" x1="21.8053" y1="20.9763" x2="29.487" y2="42.2955" gradientUnits="userSpaceOnUse">
<stop stop-color="#FEE45A"/>
<stop offset="1" stop-color="#FEA613"/>
</linearGradient>
<linearGradient id="paint1_linear_208_800" x1="17.7087" y1="42.4758" x2="33.5107" y2="76.2819" gradientUnits="userSpaceOnUse">
<stop stop-color="#EAF6FF"/>
<stop offset="1" stop-color="#B3DAFE"/>
</linearGradient>
<linearGradient id="paint2_linear_208_800" x1="39.4159" y1="63.0623" x2="30.0038" y2="43.2883" gradientUnits="userSpaceOnUse">
<stop stop-color="#D8ECFE" stop-opacity="0"/>
<stop offset="1" stop-color="#678D98"/>
</linearGradient>
<linearGradient id="paint3_linear_208_800" x1="26.7554" y1="57.9983" x2="26.7554" y2="65.9036" gradientUnits="userSpaceOnUse">
<stop stop-color="#D8ECFE" stop-opacity="0"/>
<stop offset="1" stop-color="#678D98"/>
</linearGradient>
<linearGradient id="paint4_linear_208_800" x1="26.7556" y1="41.8609" x2="26.7556" y2="50.4935" gradientUnits="userSpaceOnUse">
<stop stop-color="#FFDFCF"/>
<stop offset="1" stop-color="#FFA78F"/>
</linearGradient>
<linearGradient id="paint5_linear_208_800" x1="26.7556" y1="49.939" x2="26.7556" y2="45.647" gradientUnits="userSpaceOnUse">
<stop stop-color="#F89580" stop-opacity="0"/>
<stop offset="0.9972" stop-color="#C5715A"/>
</linearGradient>
<linearGradient id="paint6_linear_208_800" x1="19.2595" y1="47.9707" x2="12.6538" y2="53.5402" gradientUnits="userSpaceOnUse">
<stop stop-color="#EAF6FF"/>
<stop offset="1" stop-color="#B3DAFE"/>
</linearGradient>
<linearGradient id="paint7_linear_208_800" x1="32.7608" y1="46.7559" x2="37.3352" y2="50.9955" gradientUnits="userSpaceOnUse">
<stop stop-color="#EAF6FF"/>
<stop offset="1" stop-color="#B3DAFE"/>
</linearGradient>
<linearGradient id="paint8_linear_208_800" x1="9.07593" y1="24.5089" x2="13.3579" y2="28.7909" gradientUnits="userSpaceOnUse">
<stop stop-color="#FFDFCF"/>
<stop offset="1" stop-color="#FFA78F"/>
</linearGradient>
<linearGradient id="paint9_linear_208_800" x1="39.018" y1="23.6954" x2="45.0101" y2="29.6874" gradientUnits="userSpaceOnUse">
<stop stop-color="#FFDFCF"/>
<stop offset="1" stop-color="#FFA78F"/>
</linearGradient>
<linearGradient id="paint10_linear_208_800" x1="16.417" y1="20.1236" x2="36.9592" y2="33.9335" gradientUnits="userSpaceOnUse">
<stop stop-color="#FFDFCF"/>
<stop offset="1" stop-color="#FFA78F"/>
</linearGradient>
<linearGradient id="paint11_linear_208_800" x1="26.7554" y1="29.8926" x2="26.7554" y2="35.9344" gradientUnits="userSpaceOnUse">
<stop stop-color="#F89580" stop-opacity="0"/>
<stop offset="0.9972" stop-color="#C5715A"/>
</linearGradient>
<linearGradient id="paint12_linear_208_800" x1="18.4693" y1="26.2379" x2="21.5766" y2="28.5251" gradientUnits="userSpaceOnUse">
<stop stop-color="#5A5A5A"/>
<stop offset="1" stop-color="#444444"/>
</linearGradient>
<linearGradient id="paint13_linear_208_800" x1="31.9707" y1="26.104" x2="34.7328" y2="28.1754" gradientUnits="userSpaceOnUse">
<stop stop-color="#5A5A5A"/>
<stop offset="1" stop-color="#444444"/>
</linearGradient>
<linearGradient id="paint14_linear_208_800" x1="30.8183" y1="7.91908" x2="39.018" y2="17.9313" gradientUnits="userSpaceOnUse">
<stop stop-color="#FEE45A"/>
<stop offset="1" stop-color="#FEA613"/>
</linearGradient>
<linearGradient id="paint15_linear_208_800" x1="16.8393" y1="9.48161" x2="25.5571" y2="18.1994" gradientUnits="userSpaceOnUse">
<stop stop-color="#FEE45A"/>
<stop offset="1" stop-color="#FEA613"/>
</linearGradient>
<linearGradient id="paint16_linear_208_800" x1="16.9183" y1="-1.28415" x2="30.6419" y2="29.6587" gradientUnits="userSpaceOnUse">
<stop stop-color="#8AC9FE"/>
<stop offset="1" stop-color="#814AA0"/>
</linearGradient>
<linearGradient id="paint17_linear_208_800" x1="26.7553" y1="23.1893" x2="26.7553" y2="-3.23294" gradientUnits="userSpaceOnUse">
<stop stop-color="#8AC9FE"/>
<stop offset="1" stop-color="#814AA0"/>
</linearGradient>
<linearGradient id="paint18_linear_208_800" x1="43.0597" y1="13.5007" x2="43.0597" y2="20.4381" gradientUnits="userSpaceOnUse">
<stop stop-color="#5B3374" stop-opacity="0"/>
<stop offset="1" stop-color="#5B3374"/>
</linearGradient>
<linearGradient id="paint19_linear_208_800" x1="10.4511" y1="13.5007" x2="10.4511" y2="20.4381" gradientUnits="userSpaceOnUse">
<stop stop-color="#5B3374" stop-opacity="0"/>
<stop offset="1" stop-color="#5B3374"/>
</linearGradient>
<linearGradient id="paint20_linear_208_800" x1="3.21448" y1="21.9185" x2="11.9922" y2="30.6963" gradientUnits="userSpaceOnUse">
<stop stop-color="#8AC9FE"/>
<stop offset="1" stop-color="#814AA0"/>
</linearGradient>
<linearGradient id="paint21_linear_208_800" x1="8.38039" y1="26.482" x2="10.7332" y2="26.482" gradientUnits="userSpaceOnUse">
<stop stop-color="#5A5A5A"/>
<stop offset="1" stop-color="#444444"/>
</linearGradient>
<linearGradient id="paint22_linear_208_800" x1="39.0368" y1="35.9568" x2="43.1016" y2="41.4998" gradientUnits="userSpaceOnUse">
<stop stop-color="#5A5A5A"/>
<stop offset="1" stop-color="#444444"/>
</linearGradient>
<linearGradient id="paint23_linear_208_800" x1="32.1841" y1="40.858" x2="34.083" y2="43.4474" gradientUnits="userSpaceOnUse">
<stop stop-color="#5A5A5A"/>
<stop offset="1" stop-color="#444444"/>
</linearGradient>
<linearGradient id="paint24_linear_208_800" x1="50.2963" y1="21.9185" x2="41.5185" y2="30.6963" gradientUnits="userSpaceOnUse">
<stop stop-color="#8AC9FE"/>
<stop offset="1" stop-color="#814AA0"/>
</linearGradient>
<linearGradient id="paint25_linear_208_800" x1="45.1305" y1="26.482" x2="42.7776" y2="26.482" gradientUnits="userSpaceOnUse">
<stop stop-color="#5A5A5A"/>
<stop offset="1" stop-color="#444444"/>
</linearGradient>
<linearGradient id="paint26_linear_208_800" x1="35.4051" y1="36.1197" x2="57.5342" y2="58.2487" gradientUnits="userSpaceOnUse">
<stop stop-color="#B3DAFE"/>
<stop offset="1" stop-color="#4FC123"/>
</linearGradient>
<linearGradient id="paint27_linear_208_800" x1="62.271" y1="64.8895" x2="47.6475" y2="53.8248" gradientUnits="userSpaceOnUse">
<stop stop-color="#4FC123" stop-opacity="0"/>
<stop offset="1" stop-color="#017B4E"/>
</linearGradient>
<linearGradient id="paint28_linear_208_800" x1="52.0647" y1="54.547" x2="52.0647" y2="65.7503" gradientUnits="userSpaceOnUse">
<stop stop-color="#4FC123" stop-opacity="0"/>
<stop offset="1" stop-color="#017B4E"/>
</linearGradient>
<linearGradient id="paint29_linear_208_800" x1="62.1382" y1="54.7206" x2="49.126" y2="41.7084" gradientUnits="userSpaceOnUse">
<stop stop-color="#4FC123" stop-opacity="0"/>
<stop offset="1" stop-color="#017B4E"/>
</linearGradient>
<linearGradient id="paint30_linear_208_800" x1="44.8469" y1="49.8339" x2="53.9079" y2="58.895" gradientUnits="userSpaceOnUse">
<stop stop-color="#EAF6FF"/>
<stop offset="1" stop-color="#B3DAFE"/>
</linearGradient>
<linearGradient id="paint31_linear_208_800" x1="50.5397" y1="43.122" x2="53.3872" y2="45.9696" gradientUnits="userSpaceOnUse">
<stop stop-color="#EAF6FF"/>
<stop offset="1" stop-color="#B3DAFE"/>
</linearGradient>
</defs>
</svg>
