<svg width="58" height="58" viewBox="0 0 58 58" fill="none" xmlns="http://www.w3.org/2000/svg">
<rect width="58" height="58" rx="29" fill="url(#paint0_radial_222_477)"/>
<path opacity="0.4" fill-rule="evenodd" clip-rule="evenodd" d="M27.6342 19.9875H23.9413C20.9042 19.9875 19 22.1377 19 25.1817V33.3932C19 36.4372 20.8953 38.5873 23.9413 38.5873H32.6565C35.7034 38.5873 37.5988 36.4372 37.5988 33.3932V29.4148" fill="url(#paint1_linear_222_477)"/>
<path d="M37.6818 20.3231C35.9468 18.5784 34.2507 18.5396 32.4672 20.3231L31.372 21.4086C31.2751 21.5056 31.246 21.6413 31.2847 21.7673C31.9632 24.1419 33.863 26.0417 36.2376 26.7201C36.2667 26.7298 36.3152 26.7298 36.3442 26.7298C36.4412 26.7298 36.5381 26.6911 36.6059 26.6232L37.6818 25.5376C38.5638 24.6556 39 23.8124 39 22.9497C39 22.0774 38.5638 21.2148 37.6818 20.3231Z" fill="url(#paint2_linear_222_477)"/>
<path d="M34.6189 27.5344C34.3573 27.4084 34.1052 27.2824 33.8726 27.137C33.6788 27.0207 33.4849 26.8947 33.3008 26.759C33.193 26.6916 33.0758 26.6008 32.9558 26.5029C32.8495 26.4162 32.7387 26.3326 32.6417 26.2356C32.3412 25.9933 32.0214 25.6637 31.7209 25.3051C31.6231 25.2073 31.5466 25.0897 31.4612 24.9809C31.3859 24.8849 31.3027 24.769 31.2266 24.646C31.12 24.5103 30.9939 24.3165 30.8776 24.1129C30.7323 23.8706 30.6062 23.6283 30.4899 23.3763C30.328 23.0276 29.8672 22.9231 29.5954 23.195L24.9652 27.8252C24.626 28.1644 24.2964 28.8041 24.2286 29.279L23.8118 32.1674C23.7246 32.778 23.8893 33.3499 24.2673 33.7279C24.5872 34.0478 25.0234 34.2125 25.508 34.2125C25.6146 34.2125 25.7212 34.2028 25.8278 34.1932L28.7065 33.7861C29.1814 33.7182 29.8212 33.3984 30.1604 33.0494L34.7995 28.4103C35.0622 28.1476 34.9604 27.6807 34.6189 27.5344Z" fill="url(#paint3_linear_222_477)"/>
<defs>
<radialGradient id="paint0_radial_222_477" cx="0" cy="0" r="1" gradientUnits="userSpaceOnUse" gradientTransform="translate(23.5 29) rotate(79.2611) scale(29.5169)">
<stop stop-color="#ECEEFD" stop-opacity="0.2"/>
<stop offset="1" stop-color="#F0F0FF"/>
</radialGradient>
<linearGradient id="paint1_linear_222_477" x1="28.2994" y1="19.9875" x2="28.2994" y2="38.5873" gradientUnits="userSpaceOnUse">
<stop stop-color="#6F71FF"/>
<stop offset="1" stop-color="#574DFC"/>
</linearGradient>
<linearGradient id="paint2_linear_222_477" x1="35.1341" y1="19" x2="35.1341" y2="26.7298" gradientUnits="userSpaceOnUse">
<stop stop-color="#6F71FF"/>
<stop offset="1" stop-color="#574DFC"/>
</linearGradient>
<linearGradient id="paint3_linear_222_477" x1="29.582" y1="22.6106" x2="29.582" y2="34.2125" gradientUnits="userSpaceOnUse">
<stop stop-color="#6F71FF"/>
<stop offset="1" stop-color="#574DFC"/>
</linearGradient>
</defs>
</svg>
