<svg width="58" height="58" viewBox="0 0 58 58" fill="none" xmlns="http://www.w3.org/2000/svg">
<rect width="58" height="58" rx="29" fill="url(#paint0_radial_222_535)"/>
<path opacity="0.4" d="M38.2308 39H19.7692C19.3487 39 19 38.6599 19 38.2497C19 37.8396 19.3487 37.4995 19.7692 37.4995H38.2308C38.6513 37.4995 39 37.8396 39 38.2497C39 38.6599 38.6513 39 38.2308 39Z" fill="url(#paint1_linear_222_535)"/>
<path opacity="0.4" d="M36.2001 20.4743C34.2103 18.5337 32.2616 18.4836 30.2206 20.4743L28.9796 21.6846C28.877 21.7847 28.836 21.9447 28.877 22.0848C29.6565 24.7356 31.8308 26.8562 34.5488 27.6165C34.5898 27.6265 34.6309 27.6365 34.6719 27.6365C34.7847 27.6365 34.8873 27.5965 34.9693 27.5164L36.2001 26.3061C37.2155 25.3258 37.7078 24.3755 37.7078 23.4152C37.718 22.4249 37.2257 21.4646 36.2001 20.4743Z" fill="url(#paint2_linear_222_535)"/>
<path d="M32.7027 28.5266C32.4053 28.3866 32.1181 28.2465 31.8412 28.0865C31.6155 27.9564 31.4002 27.8164 31.1848 27.6664C31.0634 27.5898 30.9272 27.489 30.7898 27.3808C30.6696 27.2861 30.5456 27.1931 30.4361 27.0862V27.0862C30.1488 26.8485 29.832 26.5531 29.5358 26.2246C29.4304 26.1077 29.3239 25.9888 29.2258 25.8658V25.8658C29.1232 25.7458 28.9489 25.5457 28.795 25.3156C28.672 25.1656 28.5284 24.9455 28.395 24.7254C28.2309 24.4554 28.0873 24.1853 27.9438 23.9052V23.9052C27.7537 23.508 27.2325 23.3885 26.9172 23.696L21.1438 29.3269C21.0104 29.4569 20.8873 29.707 20.8566 29.877L20.3027 33.7082C20.2002 34.3884 20.395 35.0286 20.8258 35.4588C21.195 35.8089 21.7079 35.9989 22.2617 35.9989C22.3848 35.9989 22.5079 35.9889 22.6309 35.9689L26.5694 35.4288C26.754 35.3987 27.0104 35.2787 27.1335 35.1487L32.9045 29.5202C33.2125 29.2198 33.099 28.6941 32.7027 28.5266V28.5266Z" fill="url(#paint3_linear_222_535)"/>
<defs>
<radialGradient id="paint0_radial_222_535" cx="0" cy="0" r="1" gradientUnits="userSpaceOnUse" gradientTransform="translate(23.5 29) rotate(79.2611) scale(29.5169)">
<stop stop-color="#ECEEFD" stop-opacity="0.2"/>
<stop offset="1" stop-color="#F0F0FF"/>
</radialGradient>
<linearGradient id="paint1_linear_222_535" x1="29" y1="37.4995" x2="29" y2="39" gradientUnits="userSpaceOnUse">
<stop stop-color="#6F71FF"/>
<stop offset="1" stop-color="#574DFC"/>
</linearGradient>
<linearGradient id="paint2_linear_222_535" x1="33.2846" y1="19" x2="33.2846" y2="27.6365" gradientUnits="userSpaceOnUse">
<stop stop-color="#6F71FF"/>
<stop offset="1" stop-color="#574DFC"/>
</linearGradient>
<linearGradient id="paint3_linear_222_535" x1="26.9252" y1="23.0449" x2="26.9252" y2="35.9989" gradientUnits="userSpaceOnUse">
<stop stop-color="#6F71FF"/>
<stop offset="1" stop-color="#574DFC"/>
</linearGradient>
</defs>
</svg>
