<svg width="58" height="58" viewBox="0 0 58 58" fill="none" xmlns="http://www.w3.org/2000/svg">
<rect width="58" height="58" rx="29" fill="url(#paint0_radial_222_446)"/>
<path opacity="0.4" d="M37.0451 27.19H34.1479C31.7719 27.19 29.8371 25.26 29.8371 22.89V20C29.8371 19.45 29.386 19 28.8346 19H24.584C21.4962 19 19 21 19 24.57V33.43C19 37 21.4962 39 24.584 39H32.4637C35.5514 39 38.0476 37 38.0476 33.43V28.19C38.0476 27.64 37.5965 27.19 37.0451 27.19Z" fill="url(#paint1_linear_222_446)"/>
<path d="M32.3333 19.21C31.9223 18.8 31.2105 19.08 31.2105 19.65V23.14C31.2105 24.6 32.4536 25.81 33.9674 25.81C34.9198 25.82 36.2431 25.82 37.3759 25.82C37.9474 25.82 38.2481 25.15 37.8471 24.75C36.4035 23.3 33.817 20.69 32.3333 19.21Z" fill="url(#paint2_linear_222_446)"/>
<path d="M30.0276 30.75H24.0125C23.6015 30.75 23.2607 30.41 23.2607 30C23.2607 29.59 23.6015 29.25 24.0125 29.25H30.0276C30.4386 29.25 30.7795 29.59 30.7795 30C30.7795 30.41 30.4386 30.75 30.0276 30.75Z" fill="url(#paint3_linear_222_446)"/>
<path d="M28.0226 34.75H24.0125C23.6015 34.75 23.2607 34.41 23.2607 34C23.2607 33.59 23.6015 33.25 24.0125 33.25H28.0226C28.4336 33.25 28.7745 33.59 28.7745 34C28.7745 34.41 28.4336 34.75 28.0226 34.75Z" fill="url(#paint4_linear_222_446)"/>
<defs>
<radialGradient id="paint0_radial_222_446" cx="0" cy="0" r="1" gradientUnits="userSpaceOnUse" gradientTransform="translate(23.5 29) rotate(79.2611) scale(29.5169)">
<stop stop-color="#ECEEFD" stop-opacity="0.2"/>
<stop offset="1" stop-color="#F0F0FF"/>
</radialGradient>
<linearGradient id="paint1_linear_222_446" x1="28.5238" y1="19" x2="28.5238" y2="39" gradientUnits="userSpaceOnUse">
<stop stop-color="#6F71FF"/>
<stop offset="1" stop-color="#574DFC"/>
</linearGradient>
<linearGradient id="paint2_linear_222_446" x1="34.6206" y1="19.0151" x2="34.6206" y2="25.82" gradientUnits="userSpaceOnUse">
<stop stop-color="#6F71FF"/>
<stop offset="1" stop-color="#574DFC"/>
</linearGradient>
<linearGradient id="paint3_linear_222_446" x1="27.0201" y1="29.25" x2="27.0201" y2="30.75" gradientUnits="userSpaceOnUse">
<stop stop-color="#6F71FF"/>
<stop offset="1" stop-color="#574DFC"/>
</linearGradient>
<linearGradient id="paint4_linear_222_446" x1="26.0176" y1="33.25" x2="26.0176" y2="34.75" gradientUnits="userSpaceOnUse">
<stop stop-color="#6F71FF"/>
<stop offset="1" stop-color="#574DFC"/>
</linearGradient>
</defs>
</svg>
