<svg width="58" height="58" viewBox="0 0 58 58" fill="none" xmlns="http://www.w3.org/2000/svg">
<rect width="58" height="58" rx="29" fill="url(#paint0_radial_222_460)"/>
<path opacity="0.4" d="M21.2512 20.6978V31.8326C21.2512 32.7443 21.6791 33.6094 22.414 34.1582L27.2605 37.7861C28.2931 38.5582 29.7163 38.5582 30.7489 37.7861L35.5954 34.1582C36.3303 33.6094 36.7582 32.7443 36.7582 31.8326V20.6978H21.2512Z" fill="url(#paint1_linear_222_460)"/>
<path d="M38.3023 21.3953H19.6977C19.3163 21.3953 19 21.0791 19 20.6977C19 20.3163 19.3163 20 19.6977 20H38.3023C38.6837 20 39 20.3163 39 20.6977C39 21.0791 38.6837 21.3953 38.3023 21.3953Z" fill="url(#paint2_linear_222_460)"/>
<path d="M32.721 26.5116H25.2791C24.8977 26.5116 24.5814 26.1953 24.5814 25.8139C24.5814 25.4325 24.8977 25.1162 25.2791 25.1162H32.721C33.1024 25.1162 33.4186 25.4325 33.4186 25.8139C33.4186 26.1953 33.1024 26.5116 32.721 26.5116Z" fill="url(#paint3_linear_222_460)"/>
<path d="M32.721 31.1627H25.2791C24.8977 31.1627 24.5814 30.8464 24.5814 30.465C24.5814 30.0836 24.8977 29.7673 25.2791 29.7673H32.721C33.1024 29.7673 33.4186 30.0836 33.4186 30.465C33.4186 30.8464 33.1024 31.1627 32.721 31.1627Z" fill="url(#paint4_linear_222_460)"/>
<defs>
<radialGradient id="paint0_radial_222_460" cx="0" cy="0" r="1" gradientUnits="userSpaceOnUse" gradientTransform="translate(23.5 29) rotate(79.2611) scale(29.5169)">
<stop stop-color="#ECEEFD" stop-opacity="0.2"/>
<stop offset="1" stop-color="#F0F0FF"/>
</radialGradient>
<linearGradient id="paint1_linear_222_460" x1="29.0047" y1="20.6978" x2="29.0047" y2="38.3652" gradientUnits="userSpaceOnUse">
<stop stop-color="#6F71FF"/>
<stop offset="1" stop-color="#574DFC"/>
</linearGradient>
<linearGradient id="paint2_linear_222_460" x1="29" y1="20" x2="29" y2="21.3953" gradientUnits="userSpaceOnUse">
<stop stop-color="#6F71FF"/>
<stop offset="1" stop-color="#574DFC"/>
</linearGradient>
<linearGradient id="paint3_linear_222_460" x1="29" y1="25.1162" x2="29" y2="26.5116" gradientUnits="userSpaceOnUse">
<stop stop-color="#6F71FF"/>
<stop offset="1" stop-color="#574DFC"/>
</linearGradient>
<linearGradient id="paint4_linear_222_460" x1="29" y1="29.7673" x2="29" y2="31.1627" gradientUnits="userSpaceOnUse">
<stop stop-color="#6F71FF"/>
<stop offset="1" stop-color="#574DFC"/>
</linearGradient>
</defs>
</svg>
