<svg width="58" height="58" viewBox="0 0 58 58" fill="none" xmlns="http://www.w3.org/2000/svg">
<rect width="58" height="58" rx="29" fill="url(#paint0_radial_222_396)"/>
<path fill-rule="evenodd" clip-rule="evenodd" d="M19.3819 25.6997C18.8727 27.8704 18.8727 30.1296 19.3819 32.3003C20.1172 35.4351 22.5649 37.8828 25.6997 38.6181C27.8704 39.1273 30.1296 39.1273 32.3003 38.6181C35.4351 37.8828 37.8828 35.4351 38.6181 32.3003C39.1273 30.1296 39.1273 27.8704 38.6181 25.6997C37.8828 22.5649 35.4351 20.1172 32.3003 19.3819C30.1296 18.8727 27.8704 18.8727 25.6997 19.3819C22.5649 20.1172 20.1172 22.5649 19.3819 25.6997ZM29.8509 32.5633C29.8509 33.0039 29.4937 33.361 29.0531 33.361C28.6126 33.361 28.2554 33.0039 28.2554 32.5633C28.2554 32.1227 28.6126 31.7656 29.0531 31.7656C29.4937 31.7656 29.8509 32.1227 29.8509 32.5633ZM27.5109 26.7664C27.5109 25.944 28.1776 25.2773 29 25.2773C29.8224 25.2773 30.4891 25.944 30.4891 26.7664V26.8954C30.4891 27.3246 30.3186 27.7362 30.0151 28.0396L28.5487 29.5061C28.2995 29.7553 28.2995 30.1594 28.5487 30.4086C28.7979 30.6578 29.202 30.6578 29.4512 30.4086L30.9177 28.9422C31.4605 28.3994 31.7655 27.6631 31.7655 26.8954V26.7664C31.7655 25.2391 30.5273 24.0009 29 24.0009C27.4726 24.0009 26.2345 25.2391 26.2345 26.7664V27.2982C26.2345 27.6507 26.5202 27.9364 26.8727 27.9364C27.2251 27.9364 27.5109 27.6507 27.5109 27.2982V26.7664Z" fill="url(#paint1_linear_222_396)"/>
<defs>
<radialGradient id="paint0_radial_222_396" cx="0" cy="0" r="1" gradientUnits="userSpaceOnUse" gradientTransform="translate(23.5 29) rotate(79.2611) scale(29.5169)">
<stop stop-color="#ECEEFD" stop-opacity="0.2"/>
<stop offset="1" stop-color="#F0F0FF"/>
</radialGradient>
<linearGradient id="paint1_linear_222_396" x1="29" y1="19" x2="29" y2="39" gradientUnits="userSpaceOnUse">
<stop stop-color="#6F71FF"/>
<stop offset="1" stop-color="#574DFC"/>
</linearGradient>
</defs>
</svg>
