<svg width="58" height="58" viewBox="0 0 58 58" fill="none" xmlns="http://www.w3.org/2000/svg">
<rect width="58" height="58" rx="29" fill="url(#paint0_radial_222_505)"/>
<path d="M36.9884 27.263L35.4001 28.8513L32.2023 25.6534L33.7905 24.0652C34.2382 23.6175 34.8138 23.4043 35.3895 23.4043C35.9651 23.4043 36.5407 23.6175 36.9884 24.0652C37.8731 24.9499 37.8731 26.3783 36.9884 27.263Z" fill="url(#paint1_linear_222_505)"/>
<path opacity="0.4" d="M35.4002 28.8512L23.1312 41.1202C22.2464 42.005 20.8181 42.005 19.9333 41.1202C19.0486 40.2355 19.0486 38.8071 19.9333 37.9224L32.2024 25.6533L35.4002 28.8512Z" fill="url(#paint2_linear_222_505)"/>
<path d="M29.2032 20.4985L29.968 17.9056C30.0426 17.6631 29.968 17.402 29.8001 17.2155C29.6323 17.0289 29.3338 16.9543 29.0913 17.0289L26.4985 17.7937L23.9056 17.0289C23.6631 16.9543 23.402 17.0289 23.2155 17.1968C23.0289 17.3833 22.973 17.6445 23.0476 17.887L23.7937 20.4985L23.0289 23.0913C22.9543 23.3338 23.0289 23.595 23.1968 23.7815C23.3833 23.968 23.6445 24.024 23.887 23.9494L26.4985 23.2032L29.0913 23.968C29.1659 23.9867 29.2219 24.0053 29.2965 24.0053C29.483 24.0053 29.6509 23.9307 29.8001 23.8001C29.9867 23.6136 30.0426 23.3525 29.968 23.11L29.2032 20.4985Z" fill="url(#paint3_linear_222_505)"/>
<path d="M22.5448 29.3949L22.9819 27.9133C23.0245 27.7747 22.9819 27.6255 22.8859 27.5189C22.7793 27.4123 22.6301 27.3803 22.4915 27.4229L20.9992 27.8493L19.5175 27.4123C19.3789 27.3696 19.2297 27.4123 19.1231 27.5082C19.0165 27.6148 18.9845 27.764 19.0272 27.9026L19.4536 29.3949L19.0165 30.8766C18.9739 31.0152 19.0165 31.1644 19.1125 31.271C19.2191 31.3776 19.3683 31.4096 19.5069 31.3669L20.9885 30.9299L22.4702 31.3669C22.5022 31.3776 22.5448 31.3776 22.5875 31.3776C22.694 31.3776 22.79 31.335 22.8753 31.2604C22.9819 31.1538 23.0138 31.0045 22.9712 30.866L22.5448 29.3949Z" fill="url(#paint4_linear_222_505)"/>
<path d="M38.534 34.7247L38.9711 33.243C39.0137 33.1044 38.9711 32.9552 38.8751 32.8486C38.7685 32.742 38.6193 32.71 38.4807 32.7526L36.9991 33.1897L35.5174 32.7526C35.3788 32.71 35.2296 32.7526 35.123 32.8486C35.0164 32.9552 34.9844 33.1044 35.0271 33.243L35.4641 34.7247L35.0271 36.2063C34.9844 36.3449 35.0271 36.4941 35.123 36.6007C35.2296 36.7073 35.3788 36.7393 35.5174 36.6967L36.9991 36.2596L38.4807 36.6967C38.5127 36.7073 38.5553 36.7073 38.598 36.7073C38.7046 36.7073 38.8005 36.6647 38.8858 36.5901C38.9924 36.4835 39.0244 36.3342 38.9817 36.1957L38.534 34.7247Z" fill="url(#paint5_linear_222_505)"/>
<defs>
<radialGradient id="paint0_radial_222_505" cx="0" cy="0" r="1" gradientUnits="userSpaceOnUse" gradientTransform="translate(23.5 29) rotate(79.2611) scale(29.5169)">
<stop stop-color="#ECEEFD" stop-opacity="0.2"/>
<stop offset="1" stop-color="#F0F0FF"/>
</radialGradient>
<linearGradient id="paint1_linear_222_505" x1="34.9271" y1="23.4043" x2="34.9271" y2="28.8513" gradientUnits="userSpaceOnUse">
<stop stop-color="#6F71FF"/>
<stop offset="1" stop-color="#574DFC"/>
</linearGradient>
<linearGradient id="paint2_linear_222_505" x1="27.335" y1="25.6533" x2="27.335" y2="41.7838" gradientUnits="userSpaceOnUse">
<stop stop-color="#6F71FF"/>
<stop offset="1" stop-color="#574DFC"/>
</linearGradient>
<linearGradient id="paint3_linear_222_505" x1="26.5" y1="17" x2="26.5" y2="24.0053" gradientUnits="userSpaceOnUse">
<stop stop-color="#6F71FF"/>
<stop offset="1" stop-color="#574DFC"/>
</linearGradient>
<linearGradient id="paint4_linear_222_505" x1="20.9992" y1="27.3958" x2="20.9992" y2="31.3852" gradientUnits="userSpaceOnUse">
<stop stop-color="#6F71FF"/>
<stop offset="1" stop-color="#574DFC"/>
</linearGradient>
<linearGradient id="paint5_linear_222_505" x1="37.0044" y1="32.7344" x2="37.0044" y2="36.7149" gradientUnits="userSpaceOnUse">
<stop stop-color="#6F71FF"/>
<stop offset="1" stop-color="#574DFC"/>
</linearGradient>
</defs>
</svg>
