<svg width="58" height="58" viewBox="0 0 58 58" fill="none" xmlns="http://www.w3.org/2000/svg">
<rect width="58" height="58" rx="29" fill="url(#paint0_radial_222_490)"/>
<path opacity="0.4" d="M38.7086 27.356L37.677 31.7558C36.7929 35.5556 35.0456 37.0924 31.7615 36.7766C31.2352 36.7345 30.6668 36.6398 30.0563 36.4924L28.288 36.0714C23.8987 35.0293 22.5409 32.861 23.5724 28.4612L24.6039 24.0509C24.8144 23.1562 25.0671 22.3773 25.3828 21.7352C26.6144 19.1879 28.709 18.5038 32.2246 19.3353L33.9825 19.7458C38.3928 20.7773 39.7401 22.9562 38.7086 27.356Z" fill="url(#paint1_linear_222_490)"/>
<path d="M30.0563 36.4924C30.6144 36.6271 30.7603 37.3561 30.2283 37.572C29.9345 37.6912 29.6211 37.8046 29.2879 37.9134L27.6249 38.4607C23.4461 39.808 21.2462 38.6817 19.8884 34.503L18.541 30.3453C17.1937 26.1665 18.3095 23.9561 22.4882 22.6088L24.1513 22.0614C24.6518 21.9027 25.0748 22.4194 24.9143 22.9194C24.8011 23.272 24.6983 23.6498 24.6039 24.0508L23.5724 28.4611C22.5409 32.8609 23.8987 35.0293 28.288 36.0713L30.0563 36.4924Z" fill="url(#paint2_linear_222_490)"/>
<path d="M34.3193 27.4298C34.2561 27.4298 34.193 27.4193 34.1193 27.4088L29.0143 26.1141C28.5932 26.0088 28.3406 25.5773 28.4459 25.1562C28.5511 24.7352 28.9827 24.4826 29.4037 24.5878L34.5088 25.8825C34.9298 25.9878 35.1824 26.4193 35.0772 26.8404C34.993 27.1877 34.6667 27.4298 34.3193 27.4298Z" fill="url(#paint3_linear_222_490)"/>
<path d="M31.2352 30.9875C31.1721 30.9875 31.1089 30.977 31.0352 30.9665L27.9722 30.1876C27.5512 30.0823 27.2986 29.6507 27.4038 29.2297C27.5091 28.8087 27.9406 28.5561 28.3617 28.6613L31.4247 29.4402C31.8457 29.5455 32.0984 29.977 31.9931 30.3981C31.9089 30.756 31.5931 30.9875 31.2352 30.9875Z" fill="url(#paint4_linear_222_490)"/>
<defs>
<radialGradient id="paint0_radial_222_490" cx="0" cy="0" r="1" gradientUnits="userSpaceOnUse" gradientTransform="translate(23.5 29) rotate(79.2611) scale(29.5169)">
<stop stop-color="#ECEEFD" stop-opacity="0.2"/>
<stop offset="1" stop-color="#F0F0FF"/>
</radialGradient>
<linearGradient id="paint1_linear_222_490" x1="31.141" y1="19" x2="31.141" y2="36.8168" gradientUnits="userSpaceOnUse">
<stop stop-color="#6F71FF"/>
<stop offset="1" stop-color="#574DFC"/>
</linearGradient>
<linearGradient id="paint2_linear_222_490" x1="24.8808" y1="21.7351" x2="24.8808" y2="38.9999" gradientUnits="userSpaceOnUse">
<stop stop-color="#6F71FF"/>
<stop offset="1" stop-color="#574DFC"/>
</linearGradient>
<linearGradient id="paint3_linear_222_490" x1="31.7615" y1="24.564" x2="31.7615" y2="27.4298" gradientUnits="userSpaceOnUse">
<stop stop-color="#6F71FF"/>
<stop offset="1" stop-color="#574DFC"/>
</linearGradient>
<linearGradient id="paint4_linear_222_490" x1="29.6985" y1="28.6375" x2="29.6985" y2="30.9875" gradientUnits="userSpaceOnUse">
<stop stop-color="#6F71FF"/>
<stop offset="1" stop-color="#574DFC"/>
</linearGradient>
</defs>
</svg>
