<svg width="58" height="58" viewBox="0 0 58 58" fill="none" xmlns="http://www.w3.org/2000/svg">
<rect width="58" height="58" rx="29" fill="url(#paint0_radial_222_369)"/>
<path d="M38.0281 38.9976H30.988C30.568 38.9976 30.238 38.6576 30.238 38.2476C30.238 37.8376 30.578 37.4976 30.988 37.4976H38.0281C38.4481 37.4976 38.7781 37.8376 38.7781 38.2476C38.7781 38.6576 38.4481 38.9976 38.0281 38.9976Z" fill="url(#paint1_linear_222_369)"/>
<path opacity="0.4" d="M32.408 33.3374L27.658 38.0874C26.548 39.1974 24.7681 39.2574 23.5881 38.2674C23.5181 38.2074 23.4581 38.1474 23.3981 38.0874L22.5281 37.2174L20.738 35.4274L19.878 34.5674C19.808 34.4974 19.748 34.4274 19.688 34.3574C18.708 33.1774 18.778 31.4174 19.878 30.3174L23.568 26.6374L24.628 25.5774L32.408 33.3374Z" fill="url(#paint2_linear_222_369)"/>
<path d="M38.118 27.6375L32.408 33.3375L24.6281 25.5775L30.3381 19.8775C31.5081 18.7075 33.428 18.7075 34.598 19.8775L38.118 23.3875C39.288 24.5575 39.288 26.4675 38.118 27.6375Z" fill="url(#paint3_linear_222_369)"/>
<defs>
<radialGradient id="paint0_radial_222_369" cx="0" cy="0" r="1" gradientUnits="userSpaceOnUse" gradientTransform="translate(23.5 29) rotate(79.2611) scale(29.5169)">
<stop stop-color="#ECEEFD" stop-opacity="0.2"/>
<stop offset="1" stop-color="#F0F0FF"/>
</radialGradient>
<linearGradient id="paint1_linear_222_369" x1="34.5081" y1="37.4976" x2="34.5081" y2="38.9976" gradientUnits="userSpaceOnUse">
<stop stop-color="#6F71FF"/>
<stop offset="1" stop-color="#574DFC"/>
</linearGradient>
<linearGradient id="paint2_linear_222_369" x1="25.704" y1="25.5774" x2="25.704" y2="38.9675" gradientUnits="userSpaceOnUse">
<stop stop-color="#6F71FF"/>
<stop offset="1" stop-color="#574DFC"/>
</linearGradient>
<linearGradient id="paint3_linear_222_369" x1="31.8118" y1="19" x2="31.8118" y2="33.3375" gradientUnits="userSpaceOnUse">
<stop stop-color="#6F71FF"/>
<stop offset="1" stop-color="#574DFC"/>
</linearGradient>
</defs>
</svg>
