<svg width="58" height="58" viewBox="0 0 58 58" fill="none" xmlns="http://www.w3.org/2000/svg">
<rect width="58" height="58" rx="29" fill="url(#paint0_radial_222_354)"/>
<path opacity="0.4" d="M38 24.04V33.96C38 35.4531 37.8649 36.5216 37.5189 37.2888C37.5066 37.3161 37.5012 37.3488 37.48 37.37C37.26 37.65 36.97 37.79 36.63 37.79C36.1 37.79 35.46 37.44 34.77 36.7C33.95 35.82 32.69 35.89 31.97 36.85L30.96 38.19C30.56 38.73 30.03 39 29.5 39C28.97 39 28.44 38.73 28.04 38.19L27.02 36.84C26.31 35.89 25.06 35.82 24.24 36.69L24.23 36.7C23.1 37.91 22.1 38.09 21.52 37.37C21.4988 37.3488 21.4934 37.3161 21.4811 37.2888C21.1351 36.5216 21 35.4531 21 33.96V24.04C21 22.5314 21.1379 21.4562 21.4919 20.6874C21.4972 20.6759 21.4968 20.6665 21.5024 20.6551C21.5081 20.6436 21.5242 20.6345 21.5323 20.6245C22.1045 19.9126 23.1081 20.0986 24.23 21.3L24.24 21.31C25.06 22.18 26.31 22.11 27.02 21.16L28.04 19.81C28.44 19.27 28.97 19 29.5 19C30.03 19 30.56 19.27 30.96 19.81L31.97 21.15C32.69 22.11 33.95 22.18 34.77 21.3C35.46 20.56 36.1 20.21 36.63 20.21C36.9638 20.21 37.2493 20.3545 37.4678 20.6247C37.4759 20.6347 37.4918 20.6436 37.4975 20.6551C37.5032 20.6665 37.5028 20.6759 37.5081 20.6874C37.8621 21.4563 38 22.5314 38 24.04Z" fill="url(#paint1_linear_222_354)"/>
<path d="M34 28H26C25.59 28 25.25 27.66 25.25 27.25C25.25 26.84 25.59 26.5 26 26.5H34C34.41 26.5 34.75 26.84 34.75 27.25C34.75 27.66 34.41 28 34 28Z" fill="url(#paint2_linear_222_354)"/>
<path d="M32 31.5H26C25.59 31.5 25.25 31.16 25.25 30.75C25.25 30.34 25.59 30 26 30H32C32.41 30 32.75 30.34 32.75 30.75C32.75 31.16 32.41 31.5 32 31.5Z" fill="url(#paint3_linear_222_354)"/>
<defs>
<radialGradient id="paint0_radial_222_354" cx="0" cy="0" r="1" gradientUnits="userSpaceOnUse" gradientTransform="translate(23.5 29) rotate(79.2611) scale(29.5169)">
<stop stop-color="#ECEEFD" stop-opacity="0.2"/>
<stop offset="1" stop-color="#F0F0FF"/>
</radialGradient>
<linearGradient id="paint1_linear_222_354" x1="29.5" y1="19" x2="29.5" y2="39" gradientUnits="userSpaceOnUse">
<stop stop-color="#6F71FF"/>
<stop offset="1" stop-color="#574DFC"/>
</linearGradient>
<linearGradient id="paint2_linear_222_354" x1="30" y1="26.5" x2="30" y2="28" gradientUnits="userSpaceOnUse">
<stop stop-color="#6F71FF"/>
<stop offset="1" stop-color="#574DFC"/>
</linearGradient>
<linearGradient id="paint3_linear_222_354" x1="29" y1="30" x2="29" y2="31.5" gradientUnits="userSpaceOnUse">
<stop stop-color="#6F71FF"/>
<stop offset="1" stop-color="#574DFC"/>
</linearGradient>
</defs>
</svg>
