<svg width="58" height="58" viewBox="0 0 58 58" fill="none" xmlns="http://www.w3.org/2000/svg">
<rect width="58" height="58" rx="29" fill="url(#paint0_radial_222_523)"/>
<path d="M33.1176 39.0002C34.0273 39.0002 34.7647 38.2628 34.7647 37.3531C34.7647 36.4435 34.0273 35.7061 33.1176 35.7061C32.208 35.7061 31.4706 36.4435 31.4706 37.3531C31.4706 38.2628 32.208 39.0002 33.1176 39.0002Z" fill="url(#paint1_linear_222_523)"/>
<path d="M25.5883 39.0002C26.4979 39.0002 27.2353 38.2628 27.2353 37.3531C27.2353 36.4435 26.4979 35.7061 25.5883 35.7061C24.6786 35.7061 23.9412 36.4435 23.9412 37.3531C23.9412 38.2628 24.6786 39.0002 25.5883 39.0002Z" fill="url(#paint2_linear_222_523)"/>
<path opacity="0.4" d="M22.3788 21.5318L22.1906 23.8376C22.1529 24.28 22.5012 24.6471 22.9435 24.6471H37.3529C37.7482 24.6471 38.0776 24.3459 38.1059 23.9506C38.2282 22.2847 36.9576 20.9294 35.2918 20.9294H25.0324C24.2785 20.9294 23.6693 20.3549 23.1694 19.7906C22.7082 19.2918 22.0494 19 21.3718 19H19.7059C19.32 19 19 19.32 19 19.7059C19 20.0918 19.32 20.4118 19.7059 20.4118H21.3435C21.6353 20.4118 21.9082 20.5341 22.1059 20.7412C22.3035 20.9577 22.3976 21.24 22.3788 21.5318Z" fill="url(#paint3_linear_222_523)"/>
<path d="M37.127 26.0591H22.6894C22.2941 26.0591 21.9741 26.3603 21.9364 26.7461L21.5976 30.8403C21.4658 32.4403 22.727 33.8238 24.3364 33.8238H34.8023C36.2141 33.8238 37.4564 32.6661 37.56 31.2544L37.8705 26.8591C37.9082 26.4261 37.5694 26.0591 37.127 26.0591Z" fill="url(#paint4_linear_222_523)"/>
<defs>
<radialGradient id="paint0_radial_222_523" cx="0" cy="0" r="1" gradientUnits="userSpaceOnUse" gradientTransform="translate(23.5 29) rotate(79.2611) scale(29.5169)">
<stop stop-color="#ECEEFD" stop-opacity="0.2"/>
<stop offset="1" stop-color="#F0F0FF"/>
</radialGradient>
<linearGradient id="paint1_linear_222_523" x1="33.1176" y1="35.7061" x2="33.1176" y2="39.0002" gradientUnits="userSpaceOnUse">
<stop stop-color="#6F71FF"/>
<stop offset="1" stop-color="#574DFC"/>
</linearGradient>
<linearGradient id="paint2_linear_222_523" x1="25.5883" y1="35.7061" x2="25.5883" y2="39.0002" gradientUnits="userSpaceOnUse">
<stop stop-color="#6F71FF"/>
<stop offset="1" stop-color="#574DFC"/>
</linearGradient>
<linearGradient id="paint3_linear_222_523" x1="28.557" y1="19" x2="28.557" y2="24.6471" gradientUnits="userSpaceOnUse">
<stop stop-color="#6F71FF"/>
<stop offset="1" stop-color="#574DFC"/>
</linearGradient>
<linearGradient id="paint4_linear_222_523" x1="29.7308" y1="26.0591" x2="29.7308" y2="33.8238" gradientUnits="userSpaceOnUse">
<stop stop-color="#6F71FF"/>
<stop offset="1" stop-color="#574DFC"/>
</linearGradient>
</defs>
</svg>
